<?xml version="1.0" encoding="UTF-8" standalone="no"?>
<!-- Created with Inkscape (http://www.inkscape.org/) -->

<svg
   xmlns:dc="http://purl.org/dc/elements/1.1/"
   xmlns:cc="http://creativecommons.org/ns#"
   xmlns:rdf="http://www.w3.org/1999/02/22-rdf-syntax-ns#"
   xmlns:svg="http://www.w3.org/2000/svg"
   xmlns="http://www.w3.org/2000/svg"
   xmlns:sodipodi="http://sodipodi.sourceforge.net/DTD/sodipodi-0.dtd"
   xmlns:inkscape="http://www.inkscape.org/namespaces/inkscape"
   width="1750"
   height="580"
   viewBox="0 0 463.02082 153.45834"
   version="1.1"
   id="svg8"
   inkscape:version="0.92.2 (5c3e80d, 2017-08-06)"
   sodipodi:docname="melanowicz.svg"
   inkscape:export-filename="C:\Users\Maro\Desktop\DJB FINAL\melanowicz3.png"
   inkscape:export-xdpi="72"
   inkscape:export-ydpi="72">
  <defs
     id="defs2" />
  <sodipodi:namedview
     id="base"
     pagecolor="#ffffff"
     bordercolor="#666666"
     borderopacity="1.0"
     inkscape:pageopacity="1"
     inkscape:pageshadow="2"
     inkscape:zoom="0.49497475"
     inkscape:cx="418.40618"
     inkscape:cy="447.5656"
     inkscape:document-units="mm"
     inkscape:current-layer="layer1"
     showgrid="false"
     inkscape:showpageshadow="false"
     showborder="true"
     inkscape:window-width="1920"
     inkscape:window-height="1017"
     inkscape:window-x="-8"
     inkscape:window-y="-8"
     inkscape:window-maximized="1"
     units="px" />
  <metadata
     id="metadata5">
    <rdf:RDF>
      <cc:Work
         rdf:about="">
        <dc:format>image/svg+xml</dc:format>
        <dc:type
           rdf:resource="http://purl.org/dc/dcmitype/StillImage" />
        <dc:title></dc:title>
      </cc:Work>
    </rdf:RDF>
  </metadata>
  <g
     inkscape:label="Layer 1"
     inkscape:groupmode="layer"
     id="layer1"
     transform="translate(0,-143.54164)">
    <g
       id="g4690"
       inkscape:export-xdpi="96"
       inkscape:export-ydpi="96"
       inkscape:export-filename="C:\Users\Maro\Desktop\DJB FINAL\DJB serv\melanowicz2.png"
       transform="matrix(9.8597586,0,0,9.8597586,534.21702,-1742.319)">
      <path
         d="m -40.708683,196.58075 h 0.355379 q 0.304923,0 0.304923,0.38888 0,0.27835 -0.10749,0.43389 -0.105298,0.15555 -0.298343,0.15555 h -0.416802 q -0.228144,0 -0.353185,-0.17601 -0.122847,-0.18011 -0.122847,-0.51167 0,-0.21286 0.09214,-0.62219 l 0.563779,-2.46419 -0.423384,0.84732 q -0.151364,0.307 -0.287374,0.307 -0.177689,0 -0.230339,-0.45436 l -0.06142,-0.50757 -0.535261,2.46419 q -0.276404,1.26893 -0.421189,1.72329 -0.144784,0.45846 -0.375121,0.79411 -0.333441,0.48302 -0.765598,0.48302 -0.460676,0 -0.74805,-0.54442 -0.287374,-0.54032 -0.287374,-1.4122 0,-1.14205 0.451901,-2.00983 0.2435,-0.46255 0.607653,-0.74499 0.364153,-0.28653 0.717337,-0.28653 0.179884,0 0.287374,0.14327 0.107491,0.14326 0.107491,0.38068 0,0.24969 -0.114071,0.40523 -0.06581,0.09 -0.254469,0.12281 -0.436545,0.0736 -0.704175,0.37249 -0.221564,0.24969 -0.353185,0.65085 -0.129428,0.40114 -0.129428,0.83913 0,0.46664 0.127234,0.73271 0.127235,0.27015 0.348797,0.27015 0.265437,0 0.460676,-0.4257 0.197432,-0.42161 0.432156,-1.49407 l 0.870897,-3.9992 q 0.114072,-0.52805 0.307117,-0.52805 0.122847,0 0.193045,0.14737 0.07239,0.14736 0.125039,0.51576 l 0.133817,0.94147 0.658108,-1.20754 q 0.217174,-0.39706 0.405833,-0.39706 0.131621,0 0.221563,0.15147 0.09213,0.14736 0.09213,0.36021 0,0.1351 -0.0351,0.29472 l -0.05045,0.22922 z"
         style="font-style:italic;font-variant:normal;font-weight:normal;font-stretch:semi-expanded;font-size:6.13701153px;line-height:1.25;font-family:'Harlow Solid Italic';-inkscape-font-specification:'Harlow Solid Italic, Italic Semi-Expanded';font-variant-ligatures:normal;font-variant-caps:normal;font-variant-numeric:normal;font-feature-settings:normal;text-align:center;letter-spacing:0px;word-spacing:0px;writing-mode:lr-tb;text-anchor:middle;fill:#000000;fill-opacity:1;stroke:none;stroke-width:0.15342529"
         id="path4524"
         inkscape:connector-curvature="0" />
      <path
         d="m -38.308782,196.66672 h 0.241306 q 0.276406,0 0.276406,0.36021 0,0.24969 -0.09872,0.39297 -0.09872,0.13917 -0.272018,0.13917 h -0.280793 q -0.188658,0 -0.256662,-0.27425 -0.164527,0.27425 -0.318086,0.27425 h -0.250081 q -0.241307,0 -0.390477,-0.31927 -0.146978,-0.32339 -0.146978,-0.84324 0,-0.78593 0.289568,-1.40401 0.291761,-0.62219 0.658108,-0.62219 0.280793,0 0.410221,0.3643 0.109684,-0.307 0.287374,-0.307 0.09652,0 0.160139,0.11461 0.06581,0.11461 0.06581,0.28245 0,0.11461 -0.0351,0.27425 l -0.02413,0.11051 z m -0.796311,0.0205 h 0.05484 q 0.179882,0 0.239115,-0.27427 l 0.153556,-0.70813 q 0.03071,-0.13919 0.03071,-0.23333 0,-0.11051 -0.05923,-0.19239 -0.05703,-0.0818 -0.138202,-0.0818 -0.160139,0 -0.311503,0.34793 -0.151365,0.34794 -0.151365,0.72043 0,0.42162 0.182077,0.42162 z"
         style="font-style:italic;font-variant:normal;font-weight:normal;font-stretch:semi-expanded;font-size:6.13701153px;line-height:1.25;font-family:'Harlow Solid Italic';-inkscape-font-specification:'Harlow Solid Italic, Italic Semi-Expanded';font-variant-ligatures:normal;font-variant-caps:normal;font-variant-numeric:normal;font-feature-settings:normal;text-align:center;letter-spacing:0px;word-spacing:0px;writing-mode:lr-tb;text-anchor:middle;fill:#000000;fill-opacity:1;stroke:none;stroke-width:0.15342529"
         id="path4526"
         inkscape:connector-curvature="0" />
      <path
         d="m -37.16148,195.3241 -0.07459,0.34385 q -0.10091,0.45845 -0.263243,0.45845 -0.09872,0 -0.164527,-0.11051 -0.06581,-0.11051 -0.06581,-0.27427 0,-0.0941 0.04827,-0.31928 l 0.247888,-1.14204 q 0.08994,-0.41342 0.254468,-0.41342 0.162333,0 0.199626,0.28653 l 0.01755,0.1269 q 0.01316,0.0982 0.03949,0.12281 0.02632,0.0246 0.129427,0.0246 h 0.513325 q 0.287374,0 0.287374,0.3766 0,0.51984 -0.364154,0.51984 l -0.02413,0.041 q -0.348798,0.62219 -0.348798,0.96194 0,0.33974 0.20182,0.33974 h 0.276405 q 0.278599,0 0.278599,0.36021 0,0.25379 -0.09872,0.39297 -0.09652,0.13917 -0.272018,0.13917 h -0.429963 q -0.21937,0 -0.359767,-0.28245 -0.138202,-0.28243 -0.138202,-0.73269 0,-0.28655 0.07458,-0.5567 0.07459,-0.27017 0.263244,-0.66313 z"
         style="font-style:italic;font-variant:normal;font-weight:normal;font-stretch:semi-expanded;font-size:6.13701153px;line-height:1.25;font-family:'Harlow Solid Italic';-inkscape-font-specification:'Harlow Solid Italic, Italic Semi-Expanded';font-variant-ligatures:normal;font-variant-caps:normal;font-variant-numeric:normal;font-feature-settings:normal;text-align:center;letter-spacing:0px;word-spacing:0px;writing-mode:lr-tb;text-anchor:middle;fill:#000000;fill-opacity:1;stroke:none;stroke-width:0.15342529"
         id="path4528"
         inkscape:connector-curvature="0" />
      <path
         d="m -34.61899,197.55907 h -0.636171 q -0.274212,0 -0.447513,-0.36021 -0.171108,-0.36022 -0.171108,-0.93328 0,-0.76546 0.282986,-1.33034 0.282987,-0.56488 0.664689,-0.56488 0.258856,0 0.42119,0.27015 0.162332,0.27017 0.162332,0.70407 0,0.3029 -0.08117,0.49938 -0.08117,0.19239 -0.208401,0.19239 -0.201819,0 -0.201819,-0.35203 0,-0.0531 0,-0.09 0.0022,-0.0451 0.0022,-0.0859 0,-0.28654 -0.151365,-0.28654 -0.14259,0 -0.261049,0.28244 -0.116266,0.28245 -0.116266,0.63038 0,0.29062 0.09433,0.41342 0.09652,0.11871 0.324666,0.11871 h 0.414608 q 0.2786,0 0.2786,0.36431 0,0.24559 -0.10091,0.38887 -0.09872,0.13917 -0.269825,0.13917 z"
         style="font-style:italic;font-variant:normal;font-weight:normal;font-stretch:semi-expanded;font-size:6.13701153px;line-height:1.25;font-family:'Harlow Solid Italic';-inkscape-font-specification:'Harlow Solid Italic, Italic Semi-Expanded';font-variant-ligatures:normal;font-variant-caps:normal;font-variant-numeric:normal;font-feature-settings:normal;text-align:center;letter-spacing:0px;word-spacing:0px;writing-mode:lr-tb;text-anchor:middle;fill:#000000;fill-opacity:1;stroke:none;stroke-width:0.15342529"
         id="path4530"
         inkscape:connector-curvature="0" />
      <path
         d="m -33.555049,196.66672 h 0.247887 q 0.276406,0 0.276406,0.36431 0,0.24969 -0.09872,0.38887 -0.09652,0.13917 -0.272017,0.13917 h -0.348798 q -0.193045,0 -0.304923,-0.14736 -0.109685,-0.14737 -0.109685,-0.40114 0,-0.1351 0.04607,-0.34385 l 0.361959,-1.66189 0.02413,-0.11461 q 0.10091,-0.46254 0.324667,-0.46254 0.09213,0 0.157945,0.1146 0.068,0.11461 0.068,0.27427 0,0.131 -0.05923,0.40114 z m 0.289567,-3.54483 q 0.127235,0 0.214983,0.16783 0.08994,0.16373 0.08994,0.40114 0,0.23742 -0.08994,0.40525 -0.08775,0.16373 -0.214983,0.16373 -0.127234,0 -0.217175,-0.16373 -0.08775,-0.16783 -0.08775,-0.40525 0,-0.23741 0.08775,-0.40114 0.08994,-0.16783 0.217175,-0.16783 z"
         style="font-style:italic;font-variant:normal;font-weight:normal;font-stretch:semi-expanded;font-size:6.13701153px;line-height:1.25;font-family:'Harlow Solid Italic';-inkscape-font-specification:'Harlow Solid Italic, Italic Semi-Expanded';font-variant-ligatures:normal;font-variant-caps:normal;font-variant-numeric:normal;font-feature-settings:normal;text-align:center;letter-spacing:0px;word-spacing:0px;writing-mode:lr-tb;text-anchor:middle;fill:#000000;fill-opacity:1;stroke:none;stroke-width:0.15342529"
         id="path4532"
         inkscape:connector-curvature="0" />
      <path
         d="m -31.319675,196.66672 h 0.263243 q 0.278599,0 0.278599,0.36431 0,0.24969 -0.09872,0.38887 -0.09872,0.13917 -0.272018,0.13917 h -0.458482 q -0.133815,0 -0.225951,-0.15145 -0.08994,-0.15146 -0.08994,-0.38069 0,-0.13917 0.06142,-0.41752 l 0.193045,-0.89235 q 0.03071,-0.13917 0.03291,-0.22513 0.0022,-0.0982 -0.04387,-0.16783 -0.04387,-0.0695 -0.114072,-0.0695 -0.225951,0 -0.364153,0.63447 l -0.258857,1.18707 q -0.116267,0.54032 -0.346604,0.54032 -0.09433,0 -0.160139,-0.10641 -0.06581,-0.10641 -0.06581,-0.26197 0,-0.11461 0.03509,-0.27426 l 0.02413,-0.11051 0.443126,-2.03848 q 0.08555,-0.39705 0.291761,-0.39705 0.168915,0 0.241307,0.27835 0.234724,-0.33566 0.447515,-0.33566 0.206207,0 0.340022,0.22103 0.133816,0.22105 0.133816,0.5608 0,0.18829 -0.04827,0.41342 z"
         style="font-style:italic;font-variant:normal;font-weight:normal;font-stretch:semi-expanded;font-size:6.13701153px;line-height:1.25;font-family:'Harlow Solid Italic';-inkscape-font-specification:'Harlow Solid Italic, Italic Semi-Expanded';font-variant-ligatures:normal;font-variant-caps:normal;font-variant-numeric:normal;font-feature-settings:normal;text-align:center;letter-spacing:0px;word-spacing:0px;writing-mode:lr-tb;text-anchor:middle;fill:#000000;fill-opacity:1;stroke:none;stroke-width:0.15342529"
         id="path4534"
         inkscape:connector-curvature="0" />
      <path
         d="m -25.695046,196.58075 h 0.355379 q 0.304923,0 0.304923,0.38888 0,0.27835 -0.107491,0.43389 -0.105298,0.15555 -0.298342,0.15555 h -0.416802 q -0.228144,0 -0.353185,-0.17601 -0.122847,-0.18011 -0.122847,-0.51167 0,-0.21286 0.09214,-0.62219 l 0.563779,-2.46419 -0.423383,0.84732 q -0.151365,0.307 -0.287374,0.307 -0.177689,0 -0.230338,-0.45436 l -0.06142,-0.50757 -0.535261,2.46419 q -0.276406,1.26893 -0.42119,1.72329 -0.144783,0.45846 -0.375121,0.79411 -0.333441,0.48302 -0.765599,0.48302 -0.460676,0 -0.74805,-0.54442 -0.287373,-0.54032 -0.287373,-1.4122 0,-1.14205 0.4519,-2.00983 0.243501,-0.46255 0.607654,-0.74499 0.364153,-0.28653 0.717337,-0.28653 0.179884,0 0.287374,0.14327 0.107491,0.14326 0.107491,0.38068 0,0.24969 -0.114072,0.40523 -0.06581,0.09 -0.254469,0.12281 -0.436544,0.0736 -0.704175,0.37249 -0.221563,0.24969 -0.353185,0.65085 -0.129427,0.40114 -0.129427,0.83913 0,0.46664 0.127234,0.73271 0.127234,0.27015 0.348797,0.27015 0.265437,0 0.460675,-0.4257 0.197433,-0.42161 0.432158,-1.49407 l 0.870897,-3.9992 q 0.114071,-0.52805 0.307117,-0.52805 0.122847,0 0.193045,0.14737 0.07239,0.14736 0.12504,0.51576 l 0.133815,0.94147 0.658108,-1.20754 q 0.217176,-0.39706 0.405834,-0.39706 0.131621,0 0.221562,0.15147 0.09214,0.14736 0.09214,0.36021 0,0.1351 -0.0351,0.29472 l -0.05045,0.22922 z"
         style="font-style:italic;font-variant:normal;font-weight:normal;font-stretch:semi-expanded;font-size:6.13701153px;line-height:1.25;font-family:'Harlow Solid Italic';-inkscape-font-specification:'Harlow Solid Italic, Italic Semi-Expanded';font-variant-ligatures:normal;font-variant-caps:normal;font-variant-numeric:normal;font-feature-settings:normal;text-align:center;letter-spacing:0px;word-spacing:0px;writing-mode:lr-tb;text-anchor:middle;fill:#000000;fill-opacity:1;stroke:none;stroke-width:0.15342529"
         id="path4536"
         inkscape:connector-curvature="0" />
      <path
         d="m -24.26695,196.35972 q 0,0.307 0.247888,0.307 h 0.651527 q 0.276405,0 0.276405,0.36431 0,0.24969 -0.09872,0.38887 -0.09652,0.13917 -0.272018,0.13917 h -0.620815 q -0.346604,0 -0.52868,-0.31927 -0.179884,-0.31929 -0.179884,-0.9333 0,-0.79001 0.285181,-1.36308 0.287374,-0.57306 0.682238,-0.57306 0.287374,0 0.460676,0.28243 0.175495,0.27835 0.175495,0.73681 0,0.5526 -0.241306,0.81867 -0.133815,0.15145 -0.399252,0.15145 z m 0.105297,-0.74499 h 0.241307 q 0.234725,0 0.228144,-0.19239 -0.0066,-0.21694 -0.151365,-0.21694 -0.201819,0 -0.318086,0.40933 z"
         style="font-style:italic;font-variant:normal;font-weight:normal;font-stretch:semi-expanded;font-size:6.13701153px;line-height:1.25;font-family:'Harlow Solid Italic';-inkscape-font-specification:'Harlow Solid Italic, Italic Semi-Expanded';font-variant-ligatures:normal;font-variant-caps:normal;font-variant-numeric:normal;font-feature-settings:normal;text-align:center;letter-spacing:0px;word-spacing:0px;writing-mode:lr-tb;text-anchor:middle;fill:#000000;fill-opacity:1;stroke:none;stroke-width:0.15342529"
         id="path4538"
         inkscape:connector-curvature="0" />
      <path
         d="m -22.415473,196.66672 h 0.230338 q 0.278599,0 0.278599,0.36431 0,0.24969 -0.09872,0.38887 -0.09652,0.13917 -0.272018,0.13917 h -0.394865 q -0.162333,0 -0.256662,-0.14327 -0.09433,-0.14326 -0.09433,-0.38477 0,-0.1269 0.06362,-0.42162 l 0.886252,-4.06878 0.02413,-0.11051 q 0.10091,-0.45844 0.322472,-0.45844 0.09214,0 0.155753,0.1146 0.06581,0.11461 0.06581,0.27425 0,0.12281 -0.03291,0.27835 l -0.02413,0.11051 z"
         style="font-style:italic;font-variant:normal;font-weight:normal;font-stretch:semi-expanded;font-size:6.13701153px;line-height:1.25;font-family:'Harlow Solid Italic';-inkscape-font-specification:'Harlow Solid Italic, Italic Semi-Expanded';font-variant-ligatures:normal;font-variant-caps:normal;font-variant-numeric:normal;font-feature-settings:normal;text-align:center;letter-spacing:0px;word-spacing:0px;writing-mode:lr-tb;text-anchor:middle;fill:#000000;fill-opacity:1;stroke:none;stroke-width:0.15342529"
         id="path4540"
         inkscape:connector-curvature="0" />
      <path
         d="m -20.311722,196.66672 h 0.241307 q 0.276405,0 0.276405,0.36021 0,0.24969 -0.09872,0.39297 -0.09872,0.13917 -0.272018,0.13917 h -0.280792 q -0.188658,0 -0.256663,-0.27425 -0.164527,0.27425 -0.318085,0.27425 h -0.250081 q -0.241306,0 -0.390477,-0.31927 -0.146978,-0.32339 -0.146978,-0.84324 0,-0.78593 0.289568,-1.40401 0.291761,-0.62219 0.658108,-0.62219 0.280792,0 0.410219,0.3643 0.109685,-0.307 0.287374,-0.307 0.09652,0 0.16014,0.11461 0.06581,0.11461 0.06581,0.28245 0,0.11461 -0.0351,0.27425 l -0.02413,0.11051 z m -0.79631,0.0205 h 0.05484 q 0.179883,0 0.239112,-0.27427 l 0.153559,-0.70813 q 0.03071,-0.13919 0.03071,-0.23333 0,-0.11051 -0.05923,-0.19239 -0.05703,-0.0818 -0.138203,-0.0818 -0.160139,0 -0.311504,0.34793 -0.151365,0.34794 -0.151365,0.72043 0,0.42162 0.182077,0.42162 z"
         style="font-style:italic;font-variant:normal;font-weight:normal;font-stretch:semi-expanded;font-size:6.13701153px;line-height:1.25;font-family:'Harlow Solid Italic';-inkscape-font-specification:'Harlow Solid Italic, Italic Semi-Expanded';font-variant-ligatures:normal;font-variant-caps:normal;font-variant-numeric:normal;font-feature-settings:normal;text-align:center;letter-spacing:0px;word-spacing:0px;writing-mode:lr-tb;text-anchor:middle;fill:#000000;fill-opacity:1;stroke:none;stroke-width:0.15342529"
         id="path4542"
         inkscape:connector-curvature="0" />
      <path
         d="m -18.087317,196.66672 h 0.263244 q 0.278599,0 0.278599,0.36431 0,0.24969 -0.09872,0.38887 -0.09872,0.13917 -0.272018,0.13917 h -0.458481 q -0.133815,0 -0.225951,-0.15145 -0.08994,-0.15146 -0.08994,-0.38069 0,-0.13917 0.06142,-0.41752 l 0.193045,-0.89235 q 0.03071,-0.13917 0.03291,-0.22513 0.0022,-0.0982 -0.04387,-0.16783 -0.04387,-0.0695 -0.114072,-0.0695 -0.22595,0 -0.364153,0.63447 l -0.258856,1.18707 q -0.116265,0.54032 -0.346603,0.54032 -0.09433,0 -0.16014,-0.10641 -0.06581,-0.10641 -0.06581,-0.26197 0,-0.11461 0.0351,-0.27426 l 0.02413,-0.11051 0.443126,-2.03848 q 0.08555,-0.39705 0.291761,-0.39705 0.168914,0 0.241307,0.27835 0.234725,-0.33566 0.447513,-0.33566 0.206207,0 0.340023,0.22103 0.133814,0.22105 0.133814,0.5608 0,0.18829 -0.04826,0.41342 z"
         style="font-style:italic;font-variant:normal;font-weight:normal;font-stretch:semi-expanded;font-size:6.13701153px;line-height:1.25;font-family:'Harlow Solid Italic';-inkscape-font-specification:'Harlow Solid Italic, Italic Semi-Expanded';font-variant-ligatures:normal;font-variant-caps:normal;font-variant-numeric:normal;font-feature-settings:normal;text-align:center;letter-spacing:0px;word-spacing:0px;writing-mode:lr-tb;text-anchor:middle;fill:#000000;fill-opacity:1;stroke:none;stroke-width:0.15342529"
         id="path4544"
         inkscape:connector-curvature="0" />
      <path
         d="m -16.450823,194.37036 q 0.318086,0 0.522099,0.37658 0.206208,0.37659 0.206208,0.95785 0,0.43798 -0.107491,0.87188 -0.107491,0.4298 -0.278599,0.68767 -0.114072,0.16784 -0.236919,0.23333 -0.120654,0.0615 -0.340022,0.0615 -0.357572,0 -0.482613,-0.15965 -0.293955,-0.37657 -0.293955,-1.11338 0,-0.77773 0.300536,-1.34672 0.300536,-0.56896 0.710756,-0.56896 z m -0.05265,0.87188 q -0.162333,0 -0.296148,0.29881 -0.133816,0.29881 -0.133816,0.65903 0,0.47483 0.285181,0.47483 0.16672,0 0.256662,-0.19238 0.149171,-0.3152 0.149171,-0.72043 0,-0.23333 -0.07239,-0.3766 -0.07239,-0.14326 -0.188658,-0.14326 z"
         style="font-style:italic;font-variant:normal;font-weight:normal;font-stretch:semi-expanded;font-size:6.13701153px;line-height:1.25;font-family:'Harlow Solid Italic';-inkscape-font-specification:'Harlow Solid Italic, Italic Semi-Expanded';font-variant-ligatures:normal;font-variant-caps:normal;font-variant-numeric:normal;font-feature-settings:normal;text-align:center;letter-spacing:0px;word-spacing:0px;writing-mode:lr-tb;text-anchor:middle;fill:#000000;fill-opacity:1;stroke:none;stroke-width:0.15342529"
         id="path4546"
         inkscape:connector-curvature="0" />
      <path
         d="m -14.004853,196.03635 0.515517,-1.25257 0.04168,-0.0982 q 0.129427,-0.31517 0.28518,-0.31517 0.09872,0 0.162333,0.1228 0.06362,0.11871 0.06362,0.3029 0,0.19239 -0.133816,0.50758 l -0.822634,1.93205 q -0.162334,0.38068 -0.335636,0.38068 -0.14259,0 -0.241306,-0.20057 -0.09872,-0.20057 -0.09872,-0.4912 0,-0.0736 0.0066,-0.15146 l 0.07239,-0.73679 -0.447513,1.19934 q -0.140397,0.38068 -0.311505,0.38068 -0.146977,0 -0.241306,-0.21285 -0.09433,-0.21285 -0.09433,-0.5485 0,-0.0492 0.0022,-0.0818 l 0.06142,-1.71511 q 0.01316,-0.33155 0.09214,-0.50756 0.08117,-0.18011 0.219369,-0.18011 0.206207,0 0.206207,0.42162 0,0.0695 -0.0044,0.15554 l -0.06142,1.14613 0.489193,-1.30577 q 0.155752,-0.41752 0.361959,-0.41752 0.127234,0 0.20182,0.1351 0.07459,0.1351 0.07459,0.36431 0,0.0941 -0.0022,0.13918 z"
         style="font-style:italic;font-variant:normal;font-weight:normal;font-stretch:semi-expanded;font-size:6.13701153px;line-height:1.25;font-family:'Harlow Solid Italic';-inkscape-font-specification:'Harlow Solid Italic, Italic Semi-Expanded';font-variant-ligatures:normal;font-variant-caps:normal;font-variant-numeric:normal;font-feature-settings:normal;text-align:center;letter-spacing:0px;word-spacing:0px;writing-mode:lr-tb;text-anchor:middle;fill:#000000;fill-opacity:1;stroke:none;stroke-width:0.15342529"
         id="path4548"
         inkscape:connector-curvature="0" />
      <path
         d="m -12.442943,196.66672 h 0.247887 q 0.276406,0 0.276406,0.36431 0,0.24969 -0.09872,0.38887 -0.09652,0.13917 -0.272017,0.13917 h -0.348798 q -0.193045,0 -0.304924,-0.14736 -0.109684,-0.14737 -0.109684,-0.40114 0,-0.1351 0.04607,-0.34385 l 0.361959,-1.66189 0.02413,-0.11461 q 0.10091,-0.46254 0.324667,-0.46254 0.09213,0 0.157945,0.1146 0.068,0.11461 0.068,0.27427 0,0.131 -0.05923,0.40114 z m 0.289567,-3.54483 q 0.127235,0 0.214983,0.16783 0.08994,0.16373 0.08994,0.40114 0,0.23742 -0.08994,0.40525 -0.08775,0.16373 -0.214983,0.16373 -0.127234,0 -0.217175,-0.16373 -0.08775,-0.16783 -0.08775,-0.40525 0,-0.23741 0.08775,-0.40114 0.08994,-0.16783 0.217175,-0.16783 z"
         style="font-style:italic;font-variant:normal;font-weight:normal;font-stretch:semi-expanded;font-size:6.13701153px;line-height:1.25;font-family:'Harlow Solid Italic';-inkscape-font-specification:'Harlow Solid Italic, Italic Semi-Expanded';font-variant-ligatures:normal;font-variant-caps:normal;font-variant-numeric:normal;font-feature-settings:normal;text-align:center;letter-spacing:0px;word-spacing:0px;writing-mode:lr-tb;text-anchor:middle;fill:#000000;fill-opacity:1;stroke:none;stroke-width:0.15342529"
         id="path4550"
         inkscape:connector-curvature="0" />
      <path
         d="m -10.57611,197.55907 h -0.636171 q -0.274212,0 -0.447513,-0.36021 -0.171108,-0.36022 -0.171108,-0.93328 0,-0.76546 0.282986,-1.33034 0.282987,-0.56488 0.664689,-0.56488 0.258856,0 0.42119,0.27015 0.162331,0.27017 0.162331,0.70407 0,0.3029 -0.08117,0.49938 -0.08117,0.19239 -0.208401,0.19239 -0.201819,0 -0.201819,-0.35203 0,-0.0531 0,-0.09 0.0022,-0.0451 0.0022,-0.0859 0,-0.28654 -0.151365,-0.28654 -0.14259,0 -0.261049,0.28244 -0.116266,0.28245 -0.116266,0.63038 0,0.29062 0.09433,0.41342 0.09652,0.11871 0.324666,0.11871 h 0.414608 q 0.278599,0 0.278599,0.36431 0,0.24559 -0.10091,0.38887 -0.09872,0.13917 -0.269824,0.13917 z"
         style="font-style:italic;font-variant:normal;font-weight:normal;font-stretch:semi-expanded;font-size:6.13701153px;line-height:1.25;font-family:'Harlow Solid Italic';-inkscape-font-specification:'Harlow Solid Italic, Italic Semi-Expanded';font-variant-ligatures:normal;font-variant-caps:normal;font-variant-numeric:normal;font-feature-settings:normal;text-align:center;letter-spacing:0px;word-spacing:0px;writing-mode:lr-tb;text-anchor:middle;fill:#000000;fill-opacity:1;stroke:none;stroke-width:0.15342529"
         id="path4552"
         inkscape:connector-curvature="0" />
      <path
         d="m -9.3037674,196.66672 h 0.5528103 q 0.2764053,0 0.2764053,0.36431 0,0.24969 -0.09872,0.38887 -0.09652,0.13917 -0.2720173,0.13917 h -1.022262 q -0.1360089,0 -0.2171759,-0.1269 -0.07897,-0.1269 -0.07897,-0.34385 0,-0.20875 0.146977,-0.47482 l 0.7173386,-1.28941 -0.2435007,0.0164 h -0.05485 q -0.2391133,0 -0.2391133,-0.3684 0,-0.22923 0.09433,-0.38477 0.09433,-0.15965 0.2303367,-0.15965 h 0.05485 0.6822397 q 0.3049226,0 0.3049226,0.48302 0,0.24969 -0.1382033,0.50348 z"
         style="font-style:italic;font-variant:normal;font-weight:normal;font-stretch:semi-expanded;font-size:6.13701153px;line-height:1.25;font-family:'Harlow Solid Italic';-inkscape-font-specification:'Harlow Solid Italic, Italic Semi-Expanded';font-variant-ligatures:normal;font-variant-caps:normal;font-variant-numeric:normal;font-feature-settings:normal;text-align:center;letter-spacing:0px;word-spacing:0px;writing-mode:lr-tb;text-anchor:middle;fill:#000000;fill-opacity:1;stroke:none;stroke-width:0.15342529"
         id="path4554"
         inkscape:connector-curvature="0" />
      <path
         d="m -51.780254,202.35524 0.515518,-1.25257 0.04168,-0.0982 q 0.129428,-0.31517 0.285181,-0.31517 0.09872,0 0.162333,0.1228 0.06362,0.11871 0.06362,0.30291 0,0.19239 -0.133815,0.50758 l -0.822635,1.93206 q -0.162334,0.38068 -0.335635,0.38068 -0.14259,0 -0.241307,-0.20057 -0.09872,-0.20059 -0.09872,-0.49121 0,-0.0736 0.0066,-0.15146 l 0.07239,-0.73679 -0.447514,1.19935 q -0.140396,0.38068 -0.311504,0.38068 -0.146978,0 -0.241306,-0.21286 -0.09433,-0.21286 -0.09433,-0.54851 0,-0.0492 0.0022,-0.0818 l 0.06143,-1.71511 q 0.01316,-0.33155 0.09213,-0.50756 0.08117,-0.18011 0.219369,-0.18011 0.206208,0 0.206208,0.4216 0,0.0697 -0.0044,0.15555 l -0.06142,1.14614 0.489194,-1.30577 q 0.155752,-0.41752 0.361959,-0.41752 0.127234,0 0.20182,0.1351 0.07458,0.1351 0.07458,0.36431 0,0.0941 -0.0022,0.13917 z"
         style="font-style:italic;font-variant:normal;font-weight:normal;font-stretch:semi-expanded;font-size:6.13701153px;line-height:1.25;font-family:'Harlow Solid Italic';-inkscape-font-specification:'Harlow Solid Italic, Italic Semi-Expanded';font-variant-ligatures:normal;font-variant-caps:normal;font-variant-numeric:normal;font-feature-settings:normal;text-align:center;letter-spacing:0px;word-spacing:0px;writing-mode:lr-tb;text-anchor:middle;fill:#000000;fill-opacity:1;stroke:none;stroke-width:0.15342529"
         id="path4556"
         inkscape:connector-curvature="0" />
      <path
         d="m -49.226795,202.35524 0.515518,-1.25257 0.04168,-0.0982 q 0.129428,-0.31517 0.285181,-0.31517 0.09872,0 0.162333,0.1228 0.06362,0.11871 0.06362,0.30291 0,0.19239 -0.133815,0.50758 l -0.822635,1.93206 q -0.162334,0.38068 -0.335635,0.38068 -0.14259,0 -0.241307,-0.20057 -0.09872,-0.20059 -0.09872,-0.49121 0,-0.0736 0.0066,-0.15146 l 0.07239,-0.73679 -0.447514,1.19935 q -0.140396,0.38068 -0.311504,0.38068 -0.146978,0 -0.241306,-0.21286 -0.09433,-0.21286 -0.09433,-0.54851 0,-0.0492 0.0022,-0.0818 l 0.06143,-1.71511 q 0.01316,-0.33155 0.09213,-0.50756 0.08117,-0.18011 0.219369,-0.18011 0.206207,0 0.206207,0.4216 0,0.0697 -0.0044,0.15555 l -0.06142,1.14614 0.489193,-1.30577 q 0.155753,-0.41752 0.36196,-0.41752 0.127234,0 0.20182,0.1351 0.07458,0.1351 0.07458,0.36431 0,0.0941 -0.0022,0.13917 z"
         style="font-style:italic;font-variant:normal;font-weight:normal;font-stretch:semi-expanded;font-size:6.13701153px;line-height:1.25;font-family:'Harlow Solid Italic';-inkscape-font-specification:'Harlow Solid Italic, Italic Semi-Expanded';font-variant-ligatures:normal;font-variant-caps:normal;font-variant-numeric:normal;font-feature-settings:normal;text-align:center;letter-spacing:0px;word-spacing:0px;writing-mode:lr-tb;text-anchor:middle;fill:#000000;fill-opacity:1;stroke:none;stroke-width:0.15342529"
         id="path4558"
         inkscape:connector-curvature="0" />
      <path
         d="m -46.673336,202.35524 0.515518,-1.25257 0.04168,-0.0982 q 0.129428,-0.31517 0.285181,-0.31517 0.09872,0 0.162333,0.1228 0.06362,0.11871 0.06362,0.30291 0,0.19239 -0.133815,0.50758 l -0.822635,1.93206 q -0.162334,0.38068 -0.335635,0.38068 -0.14259,0 -0.241307,-0.20057 -0.09872,-0.20059 -0.09872,-0.49121 0,-0.0736 0.0066,-0.15146 l 0.07239,-0.73679 -0.447514,1.19935 q -0.140395,0.38068 -0.311504,0.38068 -0.146978,0 -0.241306,-0.21286 -0.09433,-0.21286 -0.09433,-0.54851 0,-0.0492 0.0022,-0.0818 l 0.06143,-1.71511 q 0.01316,-0.33155 0.09213,-0.50756 0.08117,-0.18011 0.219369,-0.18011 0.206208,0 0.206208,0.4216 0,0.0697 -0.0044,0.15555 l -0.06142,1.14614 0.489194,-1.30577 q 0.155752,-0.41752 0.361959,-0.41752 0.127234,0 0.20182,0.1351 0.07458,0.1351 0.07458,0.36431 0,0.0941 -0.0022,0.13917 z"
         style="font-style:italic;font-variant:normal;font-weight:normal;font-stretch:semi-expanded;font-size:6.13701153px;line-height:1.25;font-family:'Harlow Solid Italic';-inkscape-font-specification:'Harlow Solid Italic, Italic Semi-Expanded';font-variant-ligatures:normal;font-variant-caps:normal;font-variant-numeric:normal;font-feature-settings:normal;text-align:center;letter-spacing:0px;word-spacing:0px;writing-mode:lr-tb;text-anchor:middle;fill:#000000;fill-opacity:1;stroke:none;stroke-width:0.15342529"
         id="path4560"
         inkscape:connector-curvature="0" />
      <path
         d="m -45.291309,202.84644 q 0.12504,0 0.214982,0.16783 0.08994,0.16782 0.08994,0.40113 0,0.23743 -0.08994,0.40526 -0.08994,0.16782 -0.214982,0.16782 -0.127234,0 -0.217175,-0.16782 -0.08994,-0.16783 -0.08994,-0.40526 0,-0.23331 0.08994,-0.40113 0.08994,-0.16783 0.217175,-0.16783 z"
         style="font-style:italic;font-variant:normal;font-weight:normal;font-stretch:semi-expanded;font-size:6.13701153px;line-height:1.25;font-family:'Harlow Solid Italic';-inkscape-font-specification:'Harlow Solid Italic, Italic Semi-Expanded';font-variant-ligatures:normal;font-variant-caps:normal;font-variant-numeric:normal;font-feature-settings:normal;text-align:center;letter-spacing:0px;word-spacing:0px;writing-mode:lr-tb;text-anchor:middle;fill:#000000;fill-opacity:1;stroke:none;stroke-width:0.15342529"
         id="path4562"
         inkscape:connector-curvature="0" />
      <path
         d="m -41.959089,202.98561 h 0.261049 q 0.276406,0 0.276406,0.36431 0,0.24969 -0.09872,0.38886 -0.09652,0.13918 -0.269824,0.13918 h -0.44532 q -0.144784,0 -0.234725,-0.14327 -0.08994,-0.14326 -0.08994,-0.37659 0,-0.15964 0.05923,-0.4339 l 0.206207,-0.93737 q 0.01755,-0.0818 0.01755,-0.15145 0,-0.26607 -0.144784,-0.26607 -0.111878,0 -0.221563,0.1883 -0.109684,0.18829 -0.175496,0.49938 l -0.245693,1.12977 q -0.120653,0.5485 -0.350991,0.5485 -0.08994,0 -0.153559,-0.11051 -0.06362,-0.1105 -0.06362,-0.26197 0,-0.1187 0.03291,-0.27835 l 0.02413,-0.11051 0.247887,-1.14203 q 0.03291,-0.15146 0.03291,-0.23742 0,-0.09 -0.04387,-0.15555 -0.04387,-0.0695 -0.103104,-0.0695 -0.236919,0 -0.375121,0.63857 l -0.256662,1.17478 q -0.120653,0.55261 -0.348797,0.55261 -0.08994,0 -0.155753,-0.10642 -0.06362,-0.1105 -0.06362,-0.26607 0,-0.1228 0.03291,-0.27835 l 0.02413,-0.1105 0.436545,-2.00573 q 0.09214,-0.42162 0.276405,-0.42162 0.190851,0 0.236919,0.33566 0.149172,-0.23742 0.241306,-0.3152 0.09433,-0.0777 0.230338,-0.0777 0.293955,0 0.440933,0.47892 0.245693,-0.47892 0.55281,-0.47892 0.210595,0 0.350991,0.22921 0.14259,0.22515 0.14259,0.5567 0,0.20877 -0.04826,0.4298 z"
         style="font-style:italic;font-variant:normal;font-weight:normal;font-stretch:semi-expanded;font-size:6.13701153px;line-height:1.25;font-family:'Harlow Solid Italic';-inkscape-font-specification:'Harlow Solid Italic, Italic Semi-Expanded';font-variant-ligatures:normal;font-variant-caps:normal;font-variant-numeric:normal;font-feature-settings:normal;text-align:center;letter-spacing:0px;word-spacing:0px;writing-mode:lr-tb;text-anchor:middle;fill:#000000;fill-opacity:1;stroke:none;stroke-width:0.15342529"
         id="path4564"
         inkscape:connector-curvature="0" />
      <path
         d="m -39.835594,202.98561 h 0.241306 q 0.276406,0 0.276406,0.36021 0,0.24969 -0.09872,0.39296 -0.09872,0.13918 -0.272018,0.13918 h -0.280793 q -0.188658,0 -0.256662,-0.27425 -0.164527,0.27425 -0.318085,0.27425 h -0.250081 q -0.241307,0 -0.390478,-0.31929 -0.146977,-0.32337 -0.146977,-0.84322 0,-0.78593 0.289567,-1.40401 0.291761,-0.62219 0.658108,-0.62219 0.280793,0 0.41022,0.3643 0.109685,-0.307 0.287374,-0.307 0.09652,0 0.16014,0.11461 0.06581,0.11461 0.06581,0.28245 0,0.11461 -0.03509,0.27425 l -0.02413,0.11051 z m -0.796311,0.0205 h 0.05484 q 0.179883,0 0.239113,-0.27426 l 0.153558,-0.70814 q 0.03071,-0.13917 0.03071,-0.23332 0,-0.11051 -0.05923,-0.19238 -0.05703,-0.0818 -0.138203,-0.0818 -0.160139,0 -0.311504,0.34794 -0.151365,0.34793 -0.151365,0.72042 0,0.42161 0.182077,0.42161 z"
         style="font-style:italic;font-variant:normal;font-weight:normal;font-stretch:semi-expanded;font-size:6.13701153px;line-height:1.25;font-family:'Harlow Solid Italic';-inkscape-font-specification:'Harlow Solid Italic, Italic Semi-Expanded';font-variant-ligatures:normal;font-variant-caps:normal;font-variant-numeric:normal;font-feature-settings:normal;text-align:center;letter-spacing:0px;word-spacing:0px;writing-mode:lr-tb;text-anchor:middle;fill:#000000;fill-opacity:1;stroke:none;stroke-width:0.15342529"
         id="path4566"
         inkscape:connector-curvature="0" />
      <path
         d="m -38.688293,201.64299 -0.07458,0.34384 q -0.10091,0.45845 -0.263244,0.45845 -0.09872,0 -0.164527,-0.1105 -0.06581,-0.11051 -0.06581,-0.27426 0,-0.0941 0.04827,-0.31927 l 0.247887,-1.14205 q 0.08994,-0.41342 0.254469,-0.41342 0.162333,0 0.199625,0.28653 l 0.01755,0.12691 q 0.01316,0.0982 0.03949,0.1228 0.02632,0.0246 0.129428,0.0246 h 0.513324 q 0.287374,0 0.287374,0.37658 0,0.51986 -0.364153,0.51986 l -0.02413,0.041 q -0.348798,0.62218 -0.348798,0.96192 0,0.33975 0.20182,0.33975 h 0.276405 q 0.2786,0 0.2786,0.36022 0,0.25379 -0.09872,0.39295 -0.09652,0.13919 -0.272018,0.13919 h -0.429964 q -0.219369,0 -0.359766,-0.28245 -0.138203,-0.28244 -0.138203,-0.73271 0,-0.28653 0.07459,-0.55669 0.07458,-0.27017 0.263243,-0.66312 z"
         style="font-style:italic;font-variant:normal;font-weight:normal;font-stretch:semi-expanded;font-size:6.13701153px;line-height:1.25;font-family:'Harlow Solid Italic';-inkscape-font-specification:'Harlow Solid Italic, Italic Semi-Expanded';font-variant-ligatures:normal;font-variant-caps:normal;font-variant-numeric:normal;font-feature-settings:normal;text-align:center;letter-spacing:0px;word-spacing:0px;writing-mode:lr-tb;text-anchor:middle;fill:#000000;fill-opacity:1;stroke:none;stroke-width:0.15342529"
         id="path4568"
         inkscape:connector-curvature="0" />
      <path
         d="m -36.145802,203.87796 h -0.636171 q -0.274212,0 -0.447514,-0.36021 -0.171108,-0.36022 -0.171108,-0.93328 0,-0.76547 0.282987,-1.33034 0.282986,-0.56488 0.664689,-0.56488 0.258855,0 0.421189,0.27015 0.162333,0.27017 0.162333,0.70405 0,0.30291 -0.08117,0.4994 -0.08117,0.19239 -0.208401,0.19239 -0.20182,0 -0.20182,-0.35203 0,-0.0533 0,-0.09 0.0022,-0.0451 0.0022,-0.0859 0,-0.28653 -0.151364,-0.28653 -0.14259,0 -0.26105,0.28244 -0.116265,0.28244 -0.116265,0.63038 0,0.29062 0.09433,0.41342 0.09652,0.1187 0.324667,0.1187 h 0.414608 q 0.278599,0 0.278599,0.36432 0,0.24559 -0.10091,0.38886 -0.09872,0.13918 -0.269824,0.13918 z"
         style="font-style:italic;font-variant:normal;font-weight:normal;font-stretch:semi-expanded;font-size:6.13701153px;line-height:1.25;font-family:'Harlow Solid Italic';-inkscape-font-specification:'Harlow Solid Italic, Italic Semi-Expanded';font-variant-ligatures:normal;font-variant-caps:normal;font-variant-numeric:normal;font-feature-settings:normal;text-align:center;letter-spacing:0px;word-spacing:0px;writing-mode:lr-tb;text-anchor:middle;fill:#000000;fill-opacity:1;stroke:none;stroke-width:0.15342529"
         id="path4570"
         inkscape:connector-curvature="0" />
      <path
         d="m -35.081862,202.98561 h 0.247888 q 0.276405,0 0.276405,0.36431 0,0.24969 -0.09872,0.38886 -0.09652,0.13918 -0.272018,0.13918 H -35.2771 q -0.193046,0 -0.304924,-0.14736 -0.109684,-0.14737 -0.109684,-0.40116 0,-0.13509 0.04607,-0.34383 l 0.36196,-1.66189 0.02413,-0.11461 q 0.10091,-0.46254 0.324666,-0.46254 0.09213,0 0.157946,0.1146 0.068,0.11461 0.068,0.27426 0,0.131 -0.05923,0.40115 z m 0.289568,-3.54483 q 0.127234,0 0.214982,0.16783 0.08994,0.16372 0.08994,0.40114 0,0.23741 -0.08994,0.40523 -0.08775,0.16375 -0.214982,0.16375 -0.127234,0 -0.217176,-0.16375 -0.08775,-0.16782 -0.08775,-0.40523 0,-0.23742 0.08775,-0.40114 0.08994,-0.16783 0.217176,-0.16783 z"
         style="font-style:italic;font-variant:normal;font-weight:normal;font-stretch:semi-expanded;font-size:6.13701153px;line-height:1.25;font-family:'Harlow Solid Italic';-inkscape-font-specification:'Harlow Solid Italic, Italic Semi-Expanded';font-variant-ligatures:normal;font-variant-caps:normal;font-variant-numeric:normal;font-feature-settings:normal;text-align:center;letter-spacing:0px;word-spacing:0px;writing-mode:lr-tb;text-anchor:middle;fill:#000000;fill-opacity:1;stroke:none;stroke-width:0.15342529"
         id="path4572"
         inkscape:connector-curvature="0" />
      <path
         d="m -32.846488,202.98561 h 0.263243 q 0.2786,0 0.2786,0.36431 0,0.24969 -0.09872,0.38886 -0.09872,0.13918 -0.272018,0.13918 h -0.458482 q -0.133816,0 -0.225951,-0.15146 -0.08994,-0.15145 -0.08994,-0.38068 0,-0.13917 0.06143,-0.41752 l 0.193044,-0.89235 q 0.03071,-0.13917 0.03291,-0.22513 0.0022,-0.0982 -0.04387,-0.16783 -0.04387,-0.0695 -0.114072,-0.0695 -0.22595,0 -0.364153,0.63447 l -0.258855,1.18707 q -0.116266,0.54032 -0.346604,0.54032 -0.09433,0 -0.16014,-0.10641 -0.06581,-0.10641 -0.06581,-0.26197 0,-0.11461 0.03509,-0.27426 l 0.02413,-0.11051 0.443125,-2.03848 q 0.08555,-0.39706 0.291761,-0.39706 0.168915,0 0.241307,0.27835 0.234725,-0.33565 0.447513,-0.33565 0.206207,0 0.340023,0.22103 0.133815,0.22105 0.133815,0.56079 0,0.1883 -0.04826,0.41343 z"
         style="font-style:italic;font-variant:normal;font-weight:normal;font-stretch:semi-expanded;font-size:6.13701153px;line-height:1.25;font-family:'Harlow Solid Italic';-inkscape-font-specification:'Harlow Solid Italic, Italic Semi-Expanded';font-variant-ligatures:normal;font-variant-caps:normal;font-variant-numeric:normal;font-feature-settings:normal;text-align:center;letter-spacing:0px;word-spacing:0px;writing-mode:lr-tb;text-anchor:middle;fill:#000000;fill-opacity:1;stroke:none;stroke-width:0.15342529"
         id="path4574"
         inkscape:connector-curvature="0" />
      <path
         d="m -29.586659,202.98561 h 0.26105 q 0.276405,0 0.276405,0.36431 0,0.24969 -0.09872,0.38886 -0.09652,0.13918 -0.269824,0.13918 h -0.445319 q -0.144784,0 -0.234725,-0.14327 -0.08994,-0.14326 -0.08994,-0.37659 0,-0.15964 0.05923,-0.4339 l 0.206208,-0.93737 q 0.01755,-0.0818 0.01755,-0.15145 0,-0.26607 -0.144783,-0.26607 -0.111879,0 -0.221564,0.1883 -0.109684,0.18829 -0.175495,0.49938 l -0.245694,1.12977 q -0.120653,0.5485 -0.350991,0.5485 -0.08994,0 -0.153558,-0.11051 -0.06362,-0.1105 -0.06362,-0.26197 0,-0.1187 0.03291,-0.27835 l 0.02413,-0.11051 0.247888,-1.14203 q 0.03291,-0.15146 0.03291,-0.23742 0,-0.09 -0.04387,-0.15555 -0.04387,-0.0695 -0.103104,-0.0695 -0.236919,0 -0.375121,0.63857 l -0.256663,1.17478 q -0.120653,0.55261 -0.348797,0.55261 -0.08994,0 -0.155752,-0.10642 -0.06362,-0.1105 -0.06362,-0.26607 0,-0.1228 0.03291,-0.27835 l 0.02413,-0.1105 0.436545,-2.00573 q 0.09213,-0.42162 0.276405,-0.42162 0.190851,0 0.236919,0.33566 0.149172,-0.23742 0.241306,-0.3152 0.09433,-0.0777 0.230338,-0.0777 0.293955,0 0.440932,0.47892 0.245694,-0.47892 0.552811,-0.47892 0.210595,0 0.350991,0.22921 0.14259,0.22515 0.14259,0.5567 0,0.20877 -0.04827,0.4298 z"
         style="font-style:italic;font-variant:normal;font-weight:normal;font-stretch:semi-expanded;font-size:6.13701153px;line-height:1.25;font-family:'Harlow Solid Italic';-inkscape-font-specification:'Harlow Solid Italic, Italic Semi-Expanded';font-variant-ligatures:normal;font-variant-caps:normal;font-variant-numeric:normal;font-feature-settings:normal;text-align:center;letter-spacing:0px;word-spacing:0px;writing-mode:lr-tb;text-anchor:middle;fill:#000000;fill-opacity:1;stroke:none;stroke-width:0.15342529"
         id="path4576"
         inkscape:connector-curvature="0" />
      <path
         d="m -28.434971,202.67861 q 0,0.307 0.247888,0.307 h 0.651526 q 0.276406,0 0.276406,0.36431 0,0.24969 -0.09872,0.38886 -0.09652,0.13918 -0.272018,0.13918 h -0.620816 q -0.346603,0 -0.52868,-0.31929 -0.179882,-0.31927 -0.179882,-0.93328 0,-0.79001 0.285179,-1.36308 0.287374,-0.57306 0.682239,-0.57306 0.287374,0 0.460676,0.28243 0.175495,0.27835 0.175495,0.73681 0,0.5526 -0.241306,0.81866 -0.133815,0.15146 -0.399252,0.15146 z m 0.105297,-0.74499 h 0.241307 q 0.234725,0 0.228144,-0.19239 -0.0066,-0.21694 -0.151365,-0.21694 -0.20182,0 -0.318086,0.40933 z"
         style="font-style:italic;font-variant:normal;font-weight:normal;font-stretch:semi-expanded;font-size:6.13701153px;line-height:1.25;font-family:'Harlow Solid Italic';-inkscape-font-specification:'Harlow Solid Italic, Italic Semi-Expanded';font-variant-ligatures:normal;font-variant-caps:normal;font-variant-numeric:normal;font-feature-settings:normal;text-align:center;letter-spacing:0px;word-spacing:0px;writing-mode:lr-tb;text-anchor:middle;fill:#000000;fill-opacity:1;stroke:none;stroke-width:0.15342529"
         id="path4578"
         inkscape:connector-curvature="0" />
      <path
         d="m -26.583492,202.98561 h 0.230337 q 0.278599,0 0.278599,0.36431 0,0.24969 -0.09872,0.38886 -0.09652,0.13918 -0.272018,0.13918 h -0.394865 q -0.162333,0 -0.256662,-0.14327 -0.09433,-0.14326 -0.09433,-0.38477 0,-0.1269 0.06362,-0.42162 l 0.886251,-4.06878 0.02413,-0.11051 q 0.10091,-0.45845 0.322473,-0.45845 0.09213,0 0.155752,0.11461 0.06581,0.11461 0.06581,0.27425 0,0.12281 -0.03291,0.27835 l -0.02413,0.11051 z"
         style="font-style:italic;font-variant:normal;font-weight:normal;font-stretch:semi-expanded;font-size:6.13701153px;line-height:1.25;font-family:'Harlow Solid Italic';-inkscape-font-specification:'Harlow Solid Italic, Italic Semi-Expanded';font-variant-ligatures:normal;font-variant-caps:normal;font-variant-numeric:normal;font-feature-settings:normal;text-align:center;letter-spacing:0px;word-spacing:0px;writing-mode:lr-tb;text-anchor:middle;fill:#000000;fill-opacity:1;stroke:none;stroke-width:0.15342529"
         id="path4580"
         inkscape:connector-curvature="0" />
      <path
         d="m -24.479742,202.98561 h 0.241306 q 0.276405,0 0.276405,0.36021 0,0.24969 -0.09872,0.39296 -0.09872,0.13918 -0.272018,0.13918 h -0.280792 q -0.188658,0 -0.256662,-0.27425 -0.164527,0.27425 -0.318086,0.27425 h -0.250081 q -0.241306,0 -0.390478,-0.31929 -0.146977,-0.32337 -0.146977,-0.84322 0,-0.78593 0.289568,-1.40401 0.291761,-0.62219 0.658108,-0.62219 0.280792,0 0.410221,0.3643 0.109684,-0.307 0.287373,-0.307 0.09652,0 0.16014,0.11461 0.06581,0.11461 0.06581,0.28245 0,0.11461 -0.0351,0.27425 l -0.02413,0.11051 z m -0.796311,0.0205 h 0.05484 q 0.179883,0 0.239113,-0.27426 l 0.153558,-0.70814 q 0.03071,-0.13917 0.03071,-0.23332 0,-0.11051 -0.05923,-0.19238 -0.05703,-0.0818 -0.138203,-0.0818 -0.16014,0 -0.311505,0.34794 -0.151364,0.34793 -0.151364,0.72042 0,0.42161 0.182076,0.42161 z"
         style="font-style:italic;font-variant:normal;font-weight:normal;font-stretch:semi-expanded;font-size:6.13701153px;line-height:1.25;font-family:'Harlow Solid Italic';-inkscape-font-specification:'Harlow Solid Italic, Italic Semi-Expanded';font-variant-ligatures:normal;font-variant-caps:normal;font-variant-numeric:normal;font-feature-settings:normal;text-align:center;letter-spacing:0px;word-spacing:0px;writing-mode:lr-tb;text-anchor:middle;fill:#000000;fill-opacity:1;stroke:none;stroke-width:0.15342529"
         id="path4582"
         inkscape:connector-curvature="0" />
      <path
         d="m -22.255337,202.98561 h 0.263244 q 0.278598,0 0.278598,0.36431 0,0.24969 -0.09871,0.38886 -0.09872,0.13918 -0.272019,0.13918 h -0.458482 q -0.133814,0 -0.22595,-0.15146 -0.08994,-0.15145 -0.08994,-0.38068 0,-0.13917 0.06142,-0.41752 l 0.193045,-0.89235 q 0.03071,-0.13917 0.03291,-0.22513 0.0022,-0.0982 -0.04387,-0.16783 -0.04387,-0.0695 -0.114072,-0.0695 -0.22595,0 -0.364153,0.63447 l -0.258855,1.18707 q -0.116267,0.54032 -0.346604,0.54032 -0.09433,0 -0.16014,-0.10641 -0.06581,-0.10641 -0.06581,-0.26197 0,-0.11461 0.0351,-0.27426 l 0.02413,-0.11051 0.443126,-2.03848 q 0.08555,-0.39706 0.291761,-0.39706 0.168915,0 0.241307,0.27835 0.234724,-0.33565 0.447513,-0.33565 0.206207,0 0.340022,0.22103 0.133815,0.22105 0.133815,0.56079 0,0.1883 -0.04827,0.41343 z"
         style="font-style:italic;font-variant:normal;font-weight:normal;font-stretch:semi-expanded;font-size:6.13701153px;line-height:1.25;font-family:'Harlow Solid Italic';-inkscape-font-specification:'Harlow Solid Italic, Italic Semi-Expanded';font-variant-ligatures:normal;font-variant-caps:normal;font-variant-numeric:normal;font-feature-settings:normal;text-align:center;letter-spacing:0px;word-spacing:0px;writing-mode:lr-tb;text-anchor:middle;fill:#000000;fill-opacity:1;stroke:none;stroke-width:0.15342529"
         id="path4584"
         inkscape:connector-curvature="0" />
      <path
         d="m -20.618843,200.68925 q 0.318087,0 0.5221,0.37658 0.206207,0.37659 0.206207,0.95784 0,0.43799 -0.107491,0.87189 -0.107491,0.4298 -0.278599,0.68767 -0.114073,0.16783 -0.236919,0.23333 -0.120653,0.0615 -0.340023,0.0615 -0.357571,0 -0.482612,-0.15965 -0.293955,-0.37659 -0.293955,-1.11338 0,-0.77774 0.300536,-1.34672 0.300536,-0.56896 0.710756,-0.56896 z m -0.05265,0.87188 q -0.162333,0 -0.296148,0.29881 -0.133815,0.29881 -0.133815,0.65903 0,0.47482 0.28518,0.47482 0.16672,0 0.256662,-0.19238 0.149171,-0.31519 0.149171,-0.72042 0,-0.23333 -0.07239,-0.3766 -0.07239,-0.14326 -0.188658,-0.14326 z"
         style="font-style:italic;font-variant:normal;font-weight:normal;font-stretch:semi-expanded;font-size:6.13701153px;line-height:1.25;font-family:'Harlow Solid Italic';-inkscape-font-specification:'Harlow Solid Italic, Italic Semi-Expanded';font-variant-ligatures:normal;font-variant-caps:normal;font-variant-numeric:normal;font-feature-settings:normal;text-align:center;letter-spacing:0px;word-spacing:0px;writing-mode:lr-tb;text-anchor:middle;fill:#000000;fill-opacity:1;stroke:none;stroke-width:0.15342529"
         id="path4586"
         inkscape:connector-curvature="0" />
      <path
         d="m -18.172874,202.35524 0.515518,-1.25257 0.04168,-0.0982 q 0.129427,-0.31517 0.285179,-0.31517 0.09872,0 0.162334,0.1228 0.06362,0.11871 0.06362,0.30291 0,0.19239 -0.133815,0.50758 l -0.822635,1.93206 q -0.162333,0.38068 -0.335636,0.38068 -0.142589,0 -0.241305,-0.20057 -0.09872,-0.20059 -0.09872,-0.49121 0,-0.0736 0.0066,-0.15146 l 0.07239,-0.73679 -0.447513,1.19935 q -0.140397,0.38068 -0.311505,0.38068 -0.146977,0 -0.241306,-0.21286 -0.09433,-0.21286 -0.09433,-0.54851 0,-0.0492 0.0022,-0.0818 l 0.06142,-1.71511 q 0.01316,-0.33155 0.09214,-0.50756 0.08117,-0.18011 0.219369,-0.18011 0.206207,0 0.206207,0.4216 0,0.0697 -0.0044,0.15555 l -0.06142,1.14614 0.489193,-1.30577 q 0.155753,-0.41752 0.36196,-0.41752 0.127234,0 0.201819,0.1351 0.07459,0.1351 0.07459,0.36431 0,0.0941 -0.0022,0.13917 z"
         style="font-style:italic;font-variant:normal;font-weight:normal;font-stretch:semi-expanded;font-size:6.13701153px;line-height:1.25;font-family:'Harlow Solid Italic';-inkscape-font-specification:'Harlow Solid Italic, Italic Semi-Expanded';font-variant-ligatures:normal;font-variant-caps:normal;font-variant-numeric:normal;font-feature-settings:normal;text-align:center;letter-spacing:0px;word-spacing:0px;writing-mode:lr-tb;text-anchor:middle;fill:#000000;fill-opacity:1;stroke:none;stroke-width:0.15342529"
         id="path4588"
         inkscape:connector-curvature="0" />
      <path
         d="m -16.610963,202.98561 h 0.247888 q 0.276405,0 0.276405,0.36431 0,0.24969 -0.09872,0.38886 -0.09652,0.13918 -0.272018,0.13918 h -0.348797 q -0.193045,0 -0.304923,-0.14736 -0.109685,-0.14737 -0.109685,-0.40116 0,-0.13509 0.04607,-0.34383 l 0.361959,-1.66189 0.02413,-0.11461 q 0.10091,-0.46254 0.324667,-0.46254 0.09213,0 0.157946,0.1146 0.068,0.11461 0.068,0.27426 0,0.131 -0.05923,0.40115 z m 0.289568,-3.54483 q 0.127234,0 0.214981,0.16783 0.08994,0.16372 0.08994,0.40114 0,0.23741 -0.08994,0.40523 -0.08775,0.16375 -0.214981,0.16375 -0.127235,0 -0.217176,-0.16375 -0.08775,-0.16782 -0.08775,-0.40523 0,-0.23742 0.08775,-0.40114 0.08994,-0.16783 0.217176,-0.16783 z"
         style="font-style:italic;font-variant:normal;font-weight:normal;font-stretch:semi-expanded;font-size:6.13701153px;line-height:1.25;font-family:'Harlow Solid Italic';-inkscape-font-specification:'Harlow Solid Italic, Italic Semi-Expanded';font-variant-ligatures:normal;font-variant-caps:normal;font-variant-numeric:normal;font-feature-settings:normal;text-align:center;letter-spacing:0px;word-spacing:0px;writing-mode:lr-tb;text-anchor:middle;fill:#000000;fill-opacity:1;stroke:none;stroke-width:0.15342529"
         id="path4590"
         inkscape:connector-curvature="0" />
      <path
         d="m -14.744133,203.87796 h -0.63617 q -0.274212,0 -0.447514,-0.36021 -0.171108,-0.36022 -0.171108,-0.93328 0,-0.76547 0.282987,-1.33034 0.282986,-0.56488 0.664689,-0.56488 0.258855,0 0.421189,0.27015 0.162333,0.27017 0.162333,0.70405 0,0.30291 -0.08117,0.4994 -0.08117,0.19239 -0.2084,0.19239 -0.20182,0 -0.20182,-0.35203 0,-0.0533 0,-0.09 0.0022,-0.0451 0.0022,-0.0859 0,-0.28653 -0.151364,-0.28653 -0.142591,0 -0.26105,0.28244 -0.116265,0.28244 -0.116265,0.63038 0,0.29062 0.09433,0.41342 0.09652,0.1187 0.324667,0.1187 h 0.414608 q 0.278598,0 0.278598,0.36432 0,0.24559 -0.10091,0.38886 -0.09872,0.13918 -0.269824,0.13918 z"
         style="font-style:italic;font-variant:normal;font-weight:normal;font-stretch:semi-expanded;font-size:6.13701153px;line-height:1.25;font-family:'Harlow Solid Italic';-inkscape-font-specification:'Harlow Solid Italic, Italic Semi-Expanded';font-variant-ligatures:normal;font-variant-caps:normal;font-variant-numeric:normal;font-feature-settings:normal;text-align:center;letter-spacing:0px;word-spacing:0px;writing-mode:lr-tb;text-anchor:middle;fill:#000000;fill-opacity:1;stroke:none;stroke-width:0.15342529"
         id="path4592"
         inkscape:connector-curvature="0" />
      <path
         d="m -13.471788,202.98561 h 0.55281 q 0.276406,0 0.276406,0.36431 0,0.24969 -0.09872,0.38886 -0.09652,0.13918 -0.272018,0.13918 h -1.022261 q -0.13601,0 -0.217176,-0.1269 -0.07897,-0.1269 -0.07897,-0.34384 0,-0.20876 0.146978,-0.47482 l 0.717337,-1.28941 -0.2435,0.0164 h -0.05485 q -0.239112,0 -0.239112,-0.36841 0,-0.22921 0.09433,-0.38476 0.09433,-0.15964 0.230338,-0.15964 h 0.05485 0.682239 q 0.304923,0 0.304923,0.48301 0,0.2497 -0.138203,0.50349 z"
         style="font-style:italic;font-variant:normal;font-weight:normal;font-stretch:semi-expanded;font-size:6.13701153px;line-height:1.25;font-family:'Harlow Solid Italic';-inkscape-font-specification:'Harlow Solid Italic, Italic Semi-Expanded';font-variant-ligatures:normal;font-variant-caps:normal;font-variant-numeric:normal;font-feature-settings:normal;text-align:center;letter-spacing:0px;word-spacing:0px;writing-mode:lr-tb;text-anchor:middle;fill:#000000;fill-opacity:1;stroke:none;stroke-width:0.15342529"
         id="path4594"
         inkscape:connector-curvature="0" />
      <path
         d="m -12.105117,202.84644 q 0.125041,0 0.214982,0.16783 0.08994,0.16782 0.08994,0.40113 0,0.23743 -0.08994,0.40526 -0.08994,0.16782 -0.214982,0.16782 -0.127234,0 -0.217176,-0.16782 -0.08994,-0.16783 -0.08994,-0.40526 0,-0.23331 0.08994,-0.40113 0.08994,-0.16783 0.217176,-0.16783 z"
         style="font-style:italic;font-variant:normal;font-weight:normal;font-stretch:semi-expanded;font-size:6.13701153px;line-height:1.25;font-family:'Harlow Solid Italic';-inkscape-font-specification:'Harlow Solid Italic, Italic Semi-Expanded';font-variant-ligatures:normal;font-variant-caps:normal;font-variant-numeric:normal;font-feature-settings:normal;text-align:center;letter-spacing:0px;word-spacing:0px;writing-mode:lr-tb;text-anchor:middle;fill:#000000;fill-opacity:1;stroke:none;stroke-width:0.15342529"
         id="path4596"
         inkscape:connector-curvature="0" />
      <path
         d="m -10.935879,203.55867 -0.572554,2.62793 q -0.118459,0.54442 -0.346604,0.54442 -0.08775,0 -0.149171,-0.11051 -0.06362,-0.10641 -0.06362,-0.25788 0,-0.1269 0.05484,-0.38477 l 1.05736,-4.8629 q 0.08117,-0.36839 0.280794,-0.36839 0.138202,0 0.219368,0.24559 0.153559,-0.3029 0.375122,-0.3029 0.2303383,0 0.3707342,0.32746 0.14259,0.32337 0.14259,0.85551 0,1.00696 -0.3356352,1.64143 -0.109684,0.20877 -0.22595,0.28653 -0.116266,0.0777 -0.324667,0.0777 -0.223756,0 -0.30931,-0.0572 -0.08336,-0.0574 -0.173302,-0.26198 z m 0.179883,-0.83504 q 0.05485,0.18011 0.103103,0.23333 0.05045,0.0531 0.157946,0.0531 0.155752,0 0.2435,-0.21695 0.177689,-0.43798 0.177689,-0.90054 0,-0.39705 -0.201819,-0.39705 -0.221564,0 -0.318086,0.47892 -0.01097,0.0533 -0.01755,0.09 z"
         style="font-style:italic;font-variant:normal;font-weight:normal;font-stretch:semi-expanded;font-size:6.13701153px;line-height:1.25;font-family:'Harlow Solid Italic';-inkscape-font-specification:'Harlow Solid Italic, Italic Semi-Expanded';font-variant-ligatures:normal;font-variant-caps:normal;font-variant-numeric:normal;font-feature-settings:normal;text-align:center;letter-spacing:0px;word-spacing:0px;writing-mode:lr-tb;text-anchor:middle;fill:#000000;fill-opacity:1;stroke:none;stroke-width:0.15342529"
         id="path4598"
         inkscape:connector-curvature="0" />
      <path
         d="m -8.8584533,202.98561 h 0.230338 q 0.2785986,0 0.2785986,0.36431 0,0.24969 -0.098716,0.38886 -0.096523,0.13918 -0.2720181,0.13918 h -0.3948649 q -0.1623329,0 -0.2566623,-0.14327 -0.094329,-0.14326 -0.094329,-0.38477 0,-0.1269 0.063616,-0.42162 l 0.8862525,-4.06878 0.024129,-0.11051 q 0.1009098,-0.45845 0.3224726,-0.45845 0.092135,0 0.1557524,0.11461 0.065813,0.11461 0.065813,0.27425 0,0.12281 -0.032906,0.27835 l -0.024129,0.11051 z"
         style="font-style:italic;font-variant:normal;font-weight:normal;font-stretch:semi-expanded;font-size:6.13701153px;line-height:1.25;font-family:'Harlow Solid Italic';-inkscape-font-specification:'Harlow Solid Italic, Italic Semi-Expanded';font-variant-ligatures:normal;font-variant-caps:normal;font-variant-numeric:normal;font-feature-settings:normal;text-align:center;letter-spacing:0px;word-spacing:0px;writing-mode:lr-tb;text-anchor:middle;fill:#000000;fill-opacity:1;stroke:none;stroke-width:0.15342529"
         id="path4600"
         inkscape:connector-curvature="0" />
      <g
         id="g4646">
        <path
           style="opacity:1;fill:none;fill-opacity:0.98823529;stroke:#000000;stroke-width:0.60000002;stroke-linecap:square;stroke-linejoin:round;stroke-miterlimit:4;stroke-dasharray:none;stroke-dashoffset:0;stroke-opacity:1"
           d="m -53.360347,193.9674 c 0.749151,0 1.498303,0 2.247455,0 0.06197,-0.37852 0.100547,-0.83882 0.43472,-1.08426 0.429084,-0.19203 0.915215,-0.0672 1.369569,-0.10156 0.385275,0.0165 0.867736,-0.0954 1.154437,0.23289 0.246832,0.24742 0.159983,0.75905 0.334516,0.95293 0.76279,0 1.525582,0 2.288372,0 0,1.54054 0,3.08108 0,4.62162 -2.60969,0 -5.21938,0 -7.829069,0 0,-1.54054 0,-3.08108 0,-4.62162 z"
           id="rect4513"
           inkscape:connector-curvature="0" />
        <path
           style="opacity:1;fill:none;fill-opacity:0.98823529;stroke:#000000;stroke-width:0.60000002;stroke-linecap:square;stroke-linejoin:round;stroke-miterlimit:4;stroke-dasharray:none;stroke-dashoffset:0;stroke-opacity:1"
           d="m -47.919372,196.27402 c 0.03759,0.98988 -1.043875,1.7855 -1.977534,1.45826 -0.95615,-0.25681 -1.398335,-1.52461 -0.808732,-2.32015 0.527918,-0.83789 1.869662,-0.8854 2.455528,-0.087 0.213049,0.26706 0.331588,0.60726 0.330738,0.94885 z"
           id="path4516"
           inkscape:connector-curvature="0" />
      </g>
    </g>
  </g>
</svg>
