<?xml version="1.0" encoding="iso-8859-1"?>
<!-- Generator: Adobe Illustrator 18.0.0, SVG Export Plug-In . SVG Version: 6.00 Build 0)  -->
<!DOCTYPE svg PUBLIC "-//W3C//DTD SVG 1.1//EN" "http://www.w3.org/Graphics/SVG/1.1/DTD/svg11.dtd">
<svg xmlns="http://www.w3.org/2000/svg" xmlns:xlink="http://www.w3.org/1999/xlink" version="1.1" id="Capa_1" x="0px" y="0px" viewBox="0 0 454.914 454.914" style="enable-background:new 0 0 454.914 454.914;" xml:space="preserve" width="512px" height="512px">
<g>
	<path d="M161.976,311.131c0-3.89-5.33-7.248-13.125-9.019v-23.737c1.386-0.777,2.727-1.678,4.052-2.603   c-2.618-4.514-5.13-9.15-7.425-13.964c-1.603-3.35-3.066-6.786-4.514-10.243l-9.148,16.005c-1.218,0.153-2.389,0.468-3.651,0.468   c-4.206,0-8.672-0.938-13.294-2.618l19.024-33.225c-4.991-15.789-8.257-31.816-9.597-46.766L88.13,248.623   c-3.928-3.436-7.809-7.301-11.63-11.421l48.121-84.072c2.866-25.716,11.923-48.937,25.246-67.321   c3.235-4.451,6.639-8.696,10.336-12.538c-0.077-0.107-0.154-0.238-0.231-0.347c-0.508-0.623-1.031-1.194-1.539-1.801   c-3.343-4.013-6.84-7.803-10.553-11.207c-0.139-0.115-0.246-0.262-0.385-0.377c-3.774-3.436-7.748-6.447-11.814-9.204   c-0.662-0.446-1.309-0.924-1.986-1.355c-3.944-2.527-7.95-4.837-12.154-6.547c-24.906-10.131-45.702-5.361-48.598-4.574   C31.165,49.211,7.617,98.648,16.12,152.182c0.802,5.044,1.787,10.112,3.174,15.204c0.646,2.364,1.433,4.752,2.218,7.139   c0.385,1.202,0.725,2.388,1.141,3.598c0.43,1.224,0.953,2.464,1.416,3.695c0.895,2.373,1.771,4.745,2.789,7.117   c0.614,1.456,1.309,2.912,1.972,4.368c0.97,2.14,1.94,4.281,2.987,6.407c0.771,1.533,1.586,3.05,2.388,4.568   c1.063,1.994,2.11,3.981,3.235,5.953c2.941,5.168,6.129,10.228,9.487,15.15c1.218,1.777,2.466,3.535,3.728,5.274   c1.077,1.472,2.156,2.919,3.265,4.352c1.342,1.756,2.727,3.457,4.113,5.153c1.14,1.371,2.265,2.733,3.419,4.059   c1.448,1.656,2.912,3.249,4.39,4.828c0.816,0.855,1.57,1.767,2.434,2.55c24.929,22.63,50.293,31.358,56.069,32.196v18.319   c-7.81,1.763-13.14,5.122-13.14,9.019c0,3.989,5.592,7.417,13.71,9.15c-9.088,27.918-25.216,96.656,20.979,132.947   c1.434,1.139,3.158,1.687,4.868,1.687c2.326,0,4.652-1.032,6.208-3.011c2.68-3.428,2.095-8.388-1.341-11.076   c-40.188-31.576-21.779-97.903-14.371-119.53C153.042,320.404,161.976,316.199,161.976,311.131z M32.617,155.109   c-1.895-9.319-2.695-18.516-2.495-27.372l41.682-72.828c1.726-0.677,3.466-1.339,5.282-1.833c4.406-1.2,8.998-1.809,13.602-1.809   c0.433,0,0.849,0.139,1.279,0.146L32.617,155.109z M55.691,210.061c-3.265-5.145-6.27-10.491-9.041-15.944l76.185-133.131   c4.453,2.65,8.733,5.723,12.831,9.334L55.691,210.061z" fill="#ffffff"/>
	<path d="M438.158,66.477c-6.006-29.527-23.182-53.373-48.858-62.676c-3.403-1.232-6.872-2.075-10.353-2.741   c-1-0.191-24.051-5.704-53.896,10.443c-0.745,0.403-1.462,0.801-2.201,1.248c-3.82,2.325-7.548,4.959-11.168,7.855   c-9.951,7.956-18.9,18.076-26.478,29.807c-2.156,3.327-4.282,6.661-6.192,10.243c-0.354,0.67-0.708,1.333-1.047,2.017   c4.312,3.313,8.472,6.925,12.337,10.983c1.294-2.757,2.666-5.414,4.114-8.025l2.108-0.986c1.896-0.885,4.099-0.986,6.024-0.277   c1.972,0.718,3.572,2.18,4.467,4.074l14.91,31.871l31.87-14.912c3.927-1.847,8.642-0.153,10.488,3.798l14.926,31.87l31.87-14.918   c1.927-0.886,4.099-0.978,6.024-0.277c1.971,0.716,3.572,2.18,4.467,4.074l1.076,2.303c-1.247,6.524-2.957,13.101-5.327,19.663   c-0.401,1.109-0.911,2.218-1.341,3.327l-5.361-11.46l-31.869,14.918c-3.912,1.857-8.641,0.155-10.49-3.796l-14.926-31.877   l-31.869,14.918c-1.232,0.601-2.573,0.709-3.912,0.609c2.125,5.869,3.896,11.977,5.299,18.276l14.833-6.947   c3.897-1.818,8.642-0.146,10.49,3.805l14.926,31.87l31.854-14.91c1.91-0.895,4.082-0.972,6.021-0.278   c1.973,0.716,3.574,2.18,4.467,4.074l0.663,1.409c-3.065,5.407-6.423,10.691-10.026,15.797l-1.588-3.374l-31.854,14.912   c-3.913,1.855-8.626,0.153-10.49-3.798l-14.927-31.877l-11.691,5.476c0.647,5.776,1.095,11.63,1.095,17.63   c0,1.077-0.109,2.226-0.125,3.319c2.327,0.494,4.452,1.91,5.546,4.244l14.926,31.87l27.787-13.008   c-12.475,12.477-25.847,22.22-38.292,27.448c-0.122-0.224-0.339-0.369-0.446-0.609l-11.8-25.215   c-1.556,9.851-3.882,19.948-6.9,30.013c-1.54,5.177-3.266,10.313-5.175,15.404c0,0.024-0.017,0.038-0.017,0.062   c-2.326,6.184-4.852,12.268-7.687,18.153c-3.173,6.585-6.685,12.854-10.443,18.838c0.925,0.254,1.956,0.455,2.974,0.655   c-9.705,34.365-31.577,134.25,29.527,171.949c1.295,0.801,2.728,1.178,4.143,1.178c2.635,0,5.223-1.333,6.717-3.743   c2.278-3.713,1.124-8.573-2.573-10.852c-53.249-32.855-29.636-130.035-21.61-157.669c11.552-0.97,20.24-5.146,20.24-10.144   c0-3.888-5.33-7.246-13.123-9.017V244.39c0.863-0.057,1.729-0.139,2.586-0.218c1.727-0.17,3.467-0.371,5.207-0.702   c1.233-0.23,2.465-0.516,3.697-0.823c1.741-0.44,3.497-0.94,5.253-1.525c1.231-0.416,2.479-0.847,3.726-1.332   c1.787-0.692,3.558-1.47,5.345-2.303c1.232-0.569,2.45-1.131,3.682-1.763c1.85-0.954,3.697-2.025,5.546-3.126   c1.14-0.67,2.28-1.301,3.42-2.025c2.095-1.333,4.157-2.797,6.238-4.283c0.878-0.632,1.756-1.202,2.634-1.864   c2.927-2.202,5.822-4.536,8.673-7.016c0.585-0.508,1.139-1.071,1.724-1.587c0.416-0.377,0.833-0.778,1.248-1.155   c4.082-3.705,8.072-7.61,11.906-11.776c0.586-0.617,1.141-1.248,1.695-1.872c1.078-1.194,2.109-2.426,3.156-3.642   c1.558-1.803,3.082-3.612,4.576-5.477c1.048-1.301,2.064-2.634,3.097-3.959c3.695-4.836,7.192-9.813,10.443-14.902   c0.153-0.238,0.308-0.486,0.462-0.732c0.877-1.394,1.756-2.781,2.604-4.189c1.23-2.041,2.387-4.098,3.526-6.161   c0.755-1.357,1.524-2.704,2.235-4.068c0.646-1.24,1.248-2.479,1.862-3.719c2.789-5.629,5.284-11.283,7.317-16.882   c0.339-0.933,0.569-1.872,0.893-2.811c3.158-9.32,5.314-18.669,6.471-27.873C441.24,92.632,440.716,79.047,438.158,66.477z    M394.876,94.203c-3.912,1.841-8.643,0.146-10.489-3.796L369.46,58.529l-31.886,14.926c-3.927,1.817-8.642,0.146-10.49-3.805   l-13.692-29.275c3.959-3.965,8.116-7.5,12.461-10.596l12.185,26.046l31.885-14.926c3.897-1.801,8.641-0.145,10.49,3.806   l14.926,31.869l26.123-12.222c1.341,5.136,2.297,10.505,2.789,16.096L394.876,94.203z" fill="#ffffff"/>
	<path d="M237.344,311.037c41.543-12.338,73.506-84.572,73.506-140.425c0-61.252-38.401-110.905-85.767-110.905   c-11.877,0-23.199,3.135-33.488,8.781c-12.184,6.692-22.874,16.973-31.407,29.751c-12.97,19.431-20.871,44.686-20.871,72.374   c0,18.407,3.527,38.594,9.658,57.856c0.03,0.107,0.061,0.214,0.092,0.315c4.467,13.97,10.352,27.355,17.328,39.262   c1.311,2.25,2.62,4.521,4.007,6.647c11.859,18.169,26.446,31.608,42.436,36.344v16.406v4.682   c-7.795,1.763-13.139,5.122-13.139,9.019c0,4.705,7.748,8.642,18.298,9.896c1.726,25.77,1.941,73.952-11.398,91.158   c-2.666,3.443-2.033,8.396,1.4,11.06c1.448,1.117,3.145,1.656,4.838,1.656c2.341,0,4.683-1.047,6.238-3.059   c17.774-22.92,16.313-77.402,14.71-101.014c9.72-1.456,16.682-5.238,16.682-9.697c0-3.89-5.33-7.248-13.123-9.019v-4.682V311.037z    M215.21,76.535l7.748,1.132l-20.903,20.379l4.93,28.789l-25.848-13.593l-15.941,8.387   C175.838,97.684,193.984,80.641,215.21,76.535z M211.512,248.877l4.929,28.789l-25.847-13.593l-6.022,3.165   c-7.793-11.76-14.541-25.994-19.609-41.097l12.709-1.849l12.923-26.186l12.925,26.186l28.896,4.205L211.512,248.877z    M222.958,153.483l28.896-4.205l12.925-26.185l12.922,26.185l15.975,2.327c0.646,4.328,0.985,8.795,1.186,13.316l-9.166,8.941   l4.93,28.789l-25.846-13.593l-25.848,13.593l4.929-28.789L222.958,153.483z" fill="#ffffff"/>
</g>
<g>
</g>
<g>
</g>
<g>
</g>
<g>
</g>
<g>
</g>
<g>
</g>
<g>
</g>
<g>
</g>
<g>
</g>
<g>
</g>
<g>
</g>
<g>
</g>
<g>
</g>
<g>
</g>
<g>
</g>
</svg>
