<?xml version="1.0" encoding="UTF-8" standalone="no"?>
<!-- Created with Inkscape (http://www.inkscape.org/) -->

<svg
   xmlns:dc="http://purl.org/dc/elements/1.1/"
   xmlns:cc="http://creativecommons.org/ns#"
   xmlns:rdf="http://www.w3.org/1999/02/22-rdf-syntax-ns#"
   xmlns:svg="http://www.w3.org/2000/svg"
   xmlns="http://www.w3.org/2000/svg"
   xmlns:sodipodi="http://sodipodi.sourceforge.net/DTD/sodipodi-0.dtd"
   xmlns:inkscape="http://www.inkscape.org/namespaces/inkscape"
   width="640"
   height="640"
   viewBox="0 0 640.00002 640.00002"
   id="svg2"
   version="1.1"
   inkscape:version="0.91 r13725"
   sodipodi:docname="stars-orange.svg">
  <defs
     id="defs4" />
  <sodipodi:namedview
     id="base"
     pagecolor="#f2f2f2"
     bordercolor="#666666"
     borderopacity="1.0"
     inkscape:pageopacity="0"
     inkscape:pageshadow="2"
     inkscape:zoom="0.98994949"
     inkscape:cx="369.20255"
     inkscape:cy="373.61896"
     inkscape:document-units="px"
     inkscape:current-layer="layer1"
     showgrid="false"
     units="px"
     inkscape:window-width="1920"
     inkscape:window-height="1017"
     inkscape:window-x="-8"
     inkscape:window-y="-8"
     inkscape:window-maximized="1" />
  <metadata
     id="metadata7">
    <rdf:RDF>
      <cc:Work
         rdf:about="">
        <dc:format>image/svg+xml</dc:format>
        <dc:type
           rdf:resource="http://purl.org/dc/dcmitype/StillImage" />
        <dc:title />
      </cc:Work>
    </rdf:RDF>
  </metadata>
  <g
     inkscape:label="Layer 1"
     inkscape:groupmode="layer"
     id="layer1"
     transform="translate(0,-412.36216)">
    <path
       style="fill:#ffffff;fill-opacity:0;stroke:#ff8c00;stroke-width:0.71428573"
       d=""
       id="path4166"
       inkscape:connector-curvature="0"
       transform="translate(0,732.36216)" />
    <path
       style="fill:#ffffff;fill-opacity:0;stroke:#ff8c00;stroke-width:0.71428573"
       d=""
       id="path4168"
       inkscape:connector-curvature="0"
       transform="translate(0,732.36216)" />
    <path
       style="fill:#ffffff;fill-opacity:0;stroke:#ff8c00;stroke-width:0.71428573"
       d=""
       id="path4170"
       inkscape:connector-curvature="0"
       transform="translate(0,732.36216)" />
    <path
       style="fill:#ffffff;fill-opacity:0;stroke:#ff8c00;stroke-width:0.71428573"
       d=""
       id="path4172"
       inkscape:connector-curvature="0"
       transform="translate(0,732.36216)" />
    <path
       style="fill:#ff8c00;fill-opacity:0.7372549;stroke:#ff8c00;stroke-width:0.71428573"
       d="m 387.10979,550.14139 c -3.98198,-5.30357 -7.70835,-9.64285 -8.28082,-9.64285 -0.57247,0 -5.78337,1.13464 -11.57978,2.52143 -5.7964,1.38679 -10.95267,2.43143 -11.45837,2.32143 -0.55042,-0.11973 1.97473,-4.29047 6.29132,-10.39125 l 7.21078,-10.19124 -6.55991,-10.74854 c -3.60795,-5.9117 -6.43411,-10.87434 -6.28037,-11.02809 0.15375,-0.15374 5.2487,1.30921 11.32212,3.251 6.07342,1.94179 11.5404,3.53513 12.14884,3.54075 0.60845,0.006 4.78702,-4.24408 9.28572,-9.44377 l 8.17945,-9.45399 0.35714,12.83319 0.35715,12.83319 11.96225,5.06613 11.96225,5.06613 -12.15409,4.14434 c -6.68475,2.27939 -12.27592,4.34506 -12.42482,4.59039 -0.14891,0.24532 -0.68228,5.82997 -1.18529,12.41033 -0.503,6.58035 -1.13934,11.96428 -1.41408,11.96428 -0.27474,0 -3.75752,-4.33928 -7.73949,-9.64286 z"
       id="path4148"
       inkscape:connector-curvature="0" />
    <path
       style="fill:#ff8c00;fill-opacity:0.7372549;stroke:#ff8c00;stroke-width:0.71428573"
       d="m 495.95148,651.16329 c 0.94948,-6.14175 2.86713,-23.10197 2.658,-23.508 -0.12992,-0.25223 -5.06862,-3.29557 -10.97489,-6.76297 -7.90048,-4.63814 -10.40331,-6.42583 -9.46979,-6.76396 0.69789,-0.25278 6.09031,-1.35433 11.98317,-2.44789 5.89286,-1.09355 11.06679,-2.3434 11.49762,-2.77743 0.43084,-0.43404 1.18472,-2.71773 1.6753,-5.07487 0.49058,-2.35714 1.69955,-7.77415 2.6866,-12.03781 l 1.79465,-7.75209 2.49905,4.53781 c 1.37447,2.49579 4.21066,7.60034 6.30265,11.34344 l 3.8036,6.80563 12.72741,-1.19142 c 7.00007,-0.65529 12.78181,-1.14556 12.8483,-1.0895 0.0665,0.0561 -3.8528,4.30778 -8.70953,9.44827 l -8.83042,9.34635 5.02336,11.59987 c 2.76285,6.37993 4.91428,11.6949 4.78096,11.81105 -0.13333,0.11614 -5.34975,-2.16794 -11.59207,-5.07573 -9.77934,-4.55541 -11.50881,-5.15396 -12.5,-4.32609 -0.63268,0.52844 -5.06863,4.40098 -9.85765,8.60564 -8.3876,7.36413 -8.69406,7.55909 -8.34632,5.3097 z"
       id="path4150"
       inkscape:connector-curvature="0" />
    <path
       style="fill:#ff8c00;fill-opacity:0.7372549;stroke:#ff8c00;stroke-width:0.71428573"
       d="m 541.21689,481.02642 -5.26834,-12.18053 -12.77537,0 -12.77538,0 9.47228,-8.35089 c 5.20976,-4.59299 9.54607,-8.38999 9.63625,-8.43778 0.0902,-0.0478 -1.58003,-5.52146 -3.71159,-12.16371 -2.13156,-6.64225 -3.7726,-12.17979 -3.64675,-12.30563 0.12585,-0.12585 5.10069,2.70343 11.0552,6.28729 l 10.82639,6.5161 10.04748,-7.25065 c 5.52611,-3.98786 10.21463,-7.08349 10.41894,-6.87919 0.2043,0.20431 -0.81931,5.72712 -2.27469,12.27293 -1.45539,6.5458 -2.37711,12.14017 -2.04827,12.43193 0.32884,0.29176 5.01606,3.76574 10.41605,7.71996 l 9.81816,7.18949 -4.46102,0.44417 c -2.45356,0.24429 -8.30478,0.83222 -13.00271,1.3065 l -8.54169,0.86234 -3.95831,12.35909 -3.9583,12.35911 -5.26833,-12.18053 z"
       id="path4154"
       inkscape:connector-curvature="0" />
    <path
       style="fill:#ff8c00;fill-opacity:0.7372549;stroke:#ff8c00;stroke-width:0.71428573"
       d="m 448.00543,1021.3047 c 0,-0.5721 0.81554,-6.0933 1.8123,-12.2693 1.4713,-9.11634 1.6393,-11.38494 0.89286,-12.05704 -0.50569,-0.4553 -5.40287,-3.6897 -10.8826,-7.1875 l -9.96317,-6.3597 12.44032,-1.98456 c 6.84217,-1.0915 12.66336,-2.21983 12.93598,-2.5074 0.27261,-0.28756 1.92148,-5.98713 3.66414,-12.6657 l 3.16847,-12.14286 5.86764,11.68791 5.86764,11.68791 5.84821,-0.42247 c 3.21652,-0.23235 9.0625,-0.62114 12.99107,-0.86398 l 7.14286,-0.44151 -9.16819,9.24718 -9.16819,9.24718 4.6015,11.71464 c 2.53082,6.443 4.51054,11.8249 4.39938,11.9596 -0.11117,0.1348 -5.26931,-2.3448 -11.46253,-5.51 l -11.2604,-5.755 -3.2565,2.6379 c -1.79108,1.4508 -6.0812,4.975 -9.53362,7.8314 -3.45241,2.8565 -6.42562,5.1936 -6.60714,5.1936 -0.18151,0 -0.33003,-0.4681 -0.33003,-1.0403 z"
       id="path4156"
       inkscape:connector-curvature="0" />
    <path
       style="fill:#ff8c00;fill-opacity:0.7372549;stroke:#ff8c00;stroke-width:0.71428573"
       d="m 117.78159,487.73709 0.24657,-13.08689 -11.69763,-5.36066 -11.69762,-5.36066 3.84564,-1.24147 c 2.1151,-0.68281 7.62064,-2.40196 12.23454,-3.82034 7.00566,-2.15364 8.44382,-2.83753 8.72201,-4.14755 0.18322,-0.86278 0.90821,-6.68206 1.6111,-12.93173 l 1.27799,-11.36305 7.37391,10.47019 c 4.05565,5.7586 7.78228,10.47019 8.28141,10.47019 0.49913,0 5.69873,-0.97139 11.55466,-2.15865 5.85594,-1.18726 11.07026,-2.07119 11.58739,-1.96429 0.563,0.11639 -2.0582,4.19173 -6.53321,10.15762 l -7.47344,9.96325 2.22344,3.96532 c 1.22289,2.18093 4.06219,7.1731 6.30956,11.09373 2.24737,3.92063 4.02605,7.18308 3.95263,7.24989 -0.0734,0.0668 -5.59778,-1.72416 -12.27635,-3.97993 l -12.14286,-4.10139 -8.82316,9.61665 -8.82315,9.61666 0.24657,-13.08689 z"
       id="path4158"
       inkscape:connector-curvature="0" />
    <path
       style="fill:#ff8c00;fill-opacity:0.7372549;stroke:#ff8c00;stroke-width:0.71428573"
       d="m 116.06695,866.92171 c 0.93572,-6.18293 2.7674,-22.62681 2.54114,-22.81303 -0.13188,-0.10854 -5.16246,-3.1176 -11.17907,-6.68679 l -10.939294,-6.48946 2.725,-0.48476 c 6.815114,-1.21238 22.448134,-4.44043 22.683874,-4.68398 0.14403,-0.14881 1.52405,-5.87549 3.0667,-12.72597 l 2.80483,-12.45541 5.99936,10.93384 c 3.29966,6.01361 6.4452,11.10491 6.9901,11.31401 0.5449,0.2091 6.33692,-0.0964 12.87115,-0.67892 6.53424,-0.58251 11.96641,-1.00075 12.07151,-0.92943 0.10509,0.0713 -3.66685,4.27583 -8.38209,9.34336 -4.71525,5.06752 -8.57802,9.38756 -8.58394,9.60008 -0.006,0.21253 2.20145,5.5161 4.90527,11.78572 2.70382,6.26962 4.84613,11.48021 4.7607,11.57909 -0.0854,0.0989 -5.34278,-2.26218 -11.68298,-5.24679 l -11.52763,-5.42656 -8.41164,7.39514 c -12.07197,10.61316 -11.23048,10.08925 -10.71299,6.66986 z"
       id="path4160"
       inkscape:connector-curvature="0" />
    <path
       style="fill:#ff8c00;fill-opacity:0.7372549;stroke:#ff8c00;stroke-width:0.71428573"
       d="m 353.87658,669.19742 c -1.70548,-0.18744 -7.37961,-0.52129 -12.60919,-0.7419 l -9.50832,-0.40111 -5.55477,11.08819 c -3.05513,6.09851 -5.7303,11.06534 -5.94484,11.03742 -0.21455,-0.0279 -1.79142,-5.37861 -3.50416,-11.8904 -1.71274,-6.51181 -3.43889,-12.00405 -3.83587,-12.20498 -0.39698,-0.20093 -6.10278,-1.17202 -12.67955,-2.15795 -13.89337,-2.0828 -13.86057,-1.22979 -0.37466,-9.74142 4.68811,-2.95889 8.80763,-5.62084 9.15451,-5.91546 0.34688,-0.2946 -0.33875,-6.30435 -1.5236,-13.35499 l -2.15429,-12.81935 10.01062,8.16206 c 5.50584,4.48913 10.14842,8.17328 10.31683,8.18701 0.16841,0.0137 4.83761,-2.31716 10.37599,-5.17972 5.53839,-2.86256 10.64236,-5.386 11.34216,-5.60765 0.93939,-0.29751 0.0773,2.658 -3.2942,11.29319 -5.2773,13.51655 -5.80435,11.11605 4.70335,21.4218 3.32545,3.26154 6.52655,6.65816 7.11355,7.54806 l 1.06729,1.61798 -3.10085,-0.34078 z"
       id="path4162"
       inkscape:connector-curvature="0" />
    <path
       style="fill:#ff8c00;fill-opacity:0.7372549;stroke:#ff8c00;stroke-width:0.71428573"
       d="m 472.77852,779.14631 c -1.91824,-6.2807 -3.70583,-11.77229 -3.9724,-12.20361 -0.26657,-0.43133 -5.90902,-1.39751 -12.53879,-2.14707 -6.62976,-0.74956 -12.28326,-1.43885 -12.56333,-1.53176 -0.28007,-0.0929 4.00468,-3.34384 9.52166,-7.2243 5.51699,-3.88047 10.18297,-7.45172 10.36885,-7.93612 0.26891,-0.70076 -2.41839,-15.2225 -4.40328,-23.7946 -0.29968,-1.29422 1.77652,-0.0173 9.77488,6.0119 5.58545,4.21034 10.49758,7.65516 10.91584,7.65516 0.41826,0 5.36996,-2.6493 11.00379,-5.88732 5.63382,-3.23803 10.40909,-5.72155 10.61169,-5.51895 0.20261,0.20261 -1.3875,5.6259 -3.53359,12.05176 l -3.90197,11.68339 5.43282,4.90343 c 2.98805,2.69689 7.3134,6.63232 9.61188,8.7454 l 4.17907,3.84198 -13.08967,-0.0906 -13.08966,-0.0906 -5.01797,11.07571 c -2.75989,6.0917 -5.1989,11.2557 -5.42003,11.4757 -0.22113,0.2199 -1.97154,-4.7388 -3.88979,-11.0195 z"
       id="path4164"
       inkscape:connector-curvature="0" />
    <path
       style="fill:#ff8c00;fill-opacity:0.7372549;stroke:#ff8c00;stroke-width:0.71428573"
       d="m 178.12785,631.13731 c -3.89756,-8.52612 -5.59589,-11.59161 -6.44281,-11.62929 -0.63255,-0.0281 -6.07697,0.0846 -12.09871,0.25065 -6.02174,0.166 -11.23396,0.14768 -11.5827,-0.0407 -0.34874,-0.1884 2.94993,-3.64834 7.33038,-7.68874 4.38046,-4.0404 8.50665,-7.90614 9.16932,-8.59052 1.20317,-1.24261 1.19928,-1.26007 -2.80975,-12.59613 -2.20802,-6.24349 -4.13352,-11.76271 -4.27889,-12.26494 -0.14539,-0.50223 4.69409,1.88515 10.75434,5.30529 6.06026,3.42013 11.36766,6.13427 11.79423,6.03141 0.42657,-0.10287 4.96524,-3.37818 10.08593,-7.27848 5.12069,-3.9003 9.5174,-6.96485 9.77048,-6.81011 0.25307,0.15473 -0.59634,5.70542 -1.88759,12.33487 l -2.34773,12.05354 10.66533,7.29417 c 5.86592,4.0118 10.2508,7.39209 9.74417,7.51179 -0.50654,0.12009 -6.21543,0.84049 -12.68623,1.60179 -6.47081,0.7613 -11.93304,1.66724 -12.13831,2.0132 -0.20527,0.34595 -1.86805,5.61848 -3.69506,11.71672 -1.82701,6.09824 -3.48651,11.37478 -3.68776,11.72566 -0.20126,0.35087 -2.74764,-4.5722 -5.65864,-10.94016 z"
       id="path4167"
       inkscape:connector-curvature="0" />
    <path
       style="fill:#ff8c00;fill-opacity:0.7372549;stroke:#ff8c00;stroke-width:0.71428573"
       d="m 112.75292,1033.1672 c -4.7605,-4.5238 -9.01897,-8.4249 -9.46327,-8.6692 -0.44429,-0.2443 -5.831793,1.6911 -11.972213,4.3009 -6.14037,2.6098 -11.40123,4.7917 -11.69076,4.8487 -0.28958,0.057 1.84084,-4.8817 4.73421,-10.9746 2.89335,-6.0929 5.19801,-11.4979 5.12146,-12.011 -0.11072,-0.7424 -9.59594,-12.06199 -15.54201,-18.54774 -0.89774,-0.97922 1.53804,-0.88924 11.46785,0.42371 6.93424,0.91686 12.90561,1.49862 13.26973,1.29281 0.36412,-0.20582 3.371183,-4.94878 6.682383,-10.53992 3.31118,-5.59113 6.24623,-10.10296 6.5223,-10.02628 0.27608,0.0767 1.56047,5.5804 2.85419,12.23048 l 2.35223,12.09107 7.14242,1.59534 c 3.92832,0.87743 9.63032,2.17513 12.67102,2.88353 l 5.52866,1.2883 -11.44003,6.3618 -11.44002,6.3619 1.08167,12.1112 c 0.59496,6.6613 1.01275,12.357 0.9285,12.6573 -0.0843,0.3003 -4.04817,-3.1552 -8.80871,-7.679 z"
       id="path4164-9"
       inkscape:connector-curvature="0" />
    <path
       style="fill:#ff8c00;fill-opacity:0.7372549;stroke:#ff8c00;stroke-width:0.71428573"
       d="m 254.62656,963.38359 c -1.91824,-6.2807 -3.70583,-11.77231 -3.9724,-12.20361 -0.26657,-0.4314 -5.90903,-1.3976 -12.5388,-2.14712 -6.62976,-0.74956 -12.28326,-1.43885 -12.56333,-1.53176 -0.28007,-0.0929 4.00468,-3.34384 9.52166,-7.2243 5.51699,-3.88047 10.18297,-7.45172 10.36885,-7.93612 0.26891,-0.70076 -2.41839,-15.2225 -4.40328,-23.7946 -0.29968,-1.29422 1.77652,-0.0173 9.77489,6.0119 5.58545,4.21034 10.49758,7.65516 10.91584,7.65516 0.41826,0 5.36996,-2.6493 11.00379,-5.88732 5.63382,-3.23803 10.40909,-5.72155 10.61169,-5.51895 0.20261,0.20261 -1.3875,5.6259 -3.53359,12.05176 l -3.90197,11.68339 5.43282,4.90343 c 2.98805,2.69689 7.3134,6.63232 9.61188,8.7454 l 4.17907,3.84203 -13.08967,-0.091 -13.08966,-0.091 -5.01797,11.07571 c -2.75989,6.0917 -5.1989,11.2556 -5.42003,11.4756 -0.22113,0.2199 -1.97154,-4.7387 -3.88979,-11.0194 z"
       id="path4164-2"
       inkscape:connector-curvature="0" />
    <path
       style="fill:#ff8c00;fill-opacity:0.7372549;stroke:#ff8c00;stroke-width:0.71428573"
       d="m 57.646805,715.89617 c -1.91824,-6.2807 -3.70583,-11.77229 -3.9724,-12.20361 -0.26657,-0.43133 -5.90902,-1.39751 -12.53879,-2.14707 -6.62976,-0.74956 -12.28326,-1.43885 -12.56333,-1.53176 -0.28007,-0.0929 4.00468,-3.34384 9.52166,-7.2243 5.51699,-3.88047 10.18297,-7.45172 10.36885,-7.93612 0.26891,-0.70076 -2.41839,-15.2225 -4.40328,-23.7946 -0.29968,-1.29422 1.77652,-0.0173 9.77488,6.0119 5.58545,4.21034 10.497583,7.65516 10.915843,7.65516 0.41826,0 5.36996,-2.6493 11.00379,-5.88732 5.63382,-3.23803 10.40909,-5.72155 10.61169,-5.51895 0.20261,0.20261 -1.3875,5.6259 -3.53359,12.05176 l -3.90197,11.68339 5.43282,4.90343 c 2.98805,2.69689 7.3134,6.63232 9.61188,8.7454 l 4.17907,3.84198 -13.08967,-0.0906 -13.08966,-0.0906 -5.01797,11.07571 c -2.75989,6.0917 -5.1989,11.2557 -5.42003,11.4757 -0.22113,0.2199 -1.971543,-4.7388 -3.889793,-11.0195 z"
       id="path4164-0"
       inkscape:connector-curvature="0" />
    <path
       style="fill:#ff8c00;fill-opacity:0.7372549;stroke:#ff8c00;stroke-width:0.71428573"
       d="m 570.80429,892.67283 c -1.91824,-6.2807 -3.70583,-11.7723 -3.9724,-12.2036 -0.26657,-0.4313 -5.90902,-1.3975 -12.53879,-2.1471 -6.62976,-0.7495 -12.28326,-1.4388 -12.56333,-1.5317 -0.28007,-0.093 4.00468,-3.34386 9.52166,-7.22432 5.51699,-3.88047 10.18297,-7.45172 10.36885,-7.93612 0.26891,-0.70076 -2.41839,-15.2225 -4.40328,-23.7946 -0.29968,-1.29422 1.77652,-0.0173 9.77488,6.0119 5.58545,4.21034 10.49758,7.65516 10.91584,7.65516 0.41826,0 5.36996,-2.6493 11.00379,-5.88732 5.63382,-3.23803 10.40909,-5.72155 10.61169,-5.51895 0.20261,0.20261 -1.3875,5.6259 -3.53359,12.05176 l -3.90197,11.68339 5.43282,4.90343 c 2.98805,2.69689 7.3134,6.63232 9.61188,8.74537 l 4.17907,3.842 -13.08967,-0.091 -13.08966,-0.091 -5.01797,11.0757 c -2.75989,6.09175 -5.1989,11.25575 -5.42003,11.47575 -0.22113,0.2199 -1.97154,-4.7388 -3.88979,-11.01955 z"
       id="path4164-3"
       inkscape:connector-curvature="0" />
    <path
       style="fill:#ff8c00;fill-opacity:0.7372549;stroke:#ff8c00;stroke-width:0.71428573"
       d="m 319.27632,816.91141 c -1.91824,-6.2807 -3.70583,-11.77229 -3.9724,-12.20361 -0.26657,-0.43133 -5.90902,-1.39751 -12.53879,-2.14707 -6.62976,-0.74956 -12.28326,-1.43885 -12.56333,-1.53176 -0.28007,-0.0929 4.00468,-3.34384 9.52166,-7.2243 5.51699,-3.88047 10.18297,-7.45172 10.36885,-7.93612 0.26891,-0.70076 -2.41839,-15.2225 -4.40328,-23.7946 -0.29968,-1.29422 1.77652,-0.0173 9.77488,6.0119 5.58545,4.21034 10.49758,7.65516 10.91584,7.65516 0.41826,0 5.36996,-2.6493 11.00379,-5.88732 5.63382,-3.23803 10.40909,-5.72155 10.61169,-5.51895 0.20261,0.20261 -1.3875,5.6259 -3.53359,12.05176 l -3.90197,11.68339 5.43282,4.90343 c 2.98805,2.69689 7.3134,6.63232 9.61188,8.7454 l 4.17907,3.84198 -13.08967,-0.0906 -13.08966,-0.0906 -5.01797,11.07571 c -2.75989,6.0917 -5.1989,11.2557 -5.42003,11.4757 -0.22113,0.2199 -1.97154,-4.7388 -3.88979,-11.0195 z"
       id="path4164-91"
       inkscape:connector-curvature="0" />
  </g>
</svg>
